<svg width="943" height="194" viewBox="0 0 943 194" fill="none" xmlns="http://www.w3.org/2000/svg">
<path d="M94.5451 9.35217C101.24 4.22537 105.599 1.66182 107.62 1.66182C112.263 1.66182 115.846 3.62792 112.856 7.83768C104.954 18.9627 94.5814 32.3101 88.0225 43.2133C102.637 30.0274 112.602 21.4401 117.917 17.396C131.867 6.92545 143.604 1.66182 153.126 1.66182C162.205 1.66182 166.744 4.76461 166.744 10.9696C166.744 17.6178 163.312 20.9414 156.447 20.9414C147.375 20.9414 148.37 18.091 149.804 14.7847C151.377 11.1577 152.672 5.75966 146.8 5.75966C138.821 5.75966 124.781 14.4283 105.984 31.98C116.355 27.5938 131.101 28.6798 133.694 42.0496C135.412 50.9079 136.861 55.6551 145.849 51.6014C157.138 46.5085 170.338 32.9528 180.162 24.771C186.462 19.5247 193.06 14.596 200.866 10.3079C213.875 3.1616 222.325 1.66182 229.578 1.66182C242.372 1.66182 244.022 11.9832 237.66 20.7755C234.022 25.8032 224.872 28.5483 224.872 20.9414C224.872 16.9912 230.187 11.6655 230.187 7.31315C230.187 5.76176 229.079 4.98636 226.865 4.98636C221.329 4.98636 213.578 10.9696 203.614 22.8808C193.649 34.7923 188.667 43.8783 188.667 50.1382C188.667 54.4044 191.213 56.5097 196.306 56.5097C222.05 56.5097 246.023 25.4395 265.613 11.582C274.965 4.96926 281.868 1.66182 286.321 1.66182C291.857 1.66182 294.625 4.21037 294.625 9.36267C294.625 15.4296 276.21 39.6607 271.757 45.2571C285.271 33.7579 323.32 1.66182 339.134 1.66182C345.999 1.66182 349.431 4.09964 349.431 9.03048C349.431 17.5232 330.631 37.021 325.294 46.6912C321.294 53.9431 324.96 54.615 331.503 51.9017C348.722 44.7593 366.266 22.8919 386.245 12.0775C399.163 5.08539 409.829 1.66182 418.078 1.66182C424.555 1.66182 427.821 4.54285 427.821 10.3601C427.821 20.3878 411.102 30.7479 377.664 41.4405C374.53 47.8747 372.727 56.5097 383.312 56.5097C390.176 56.5097 398.259 53.8501 407.559 48.5316C425.762 37.8525 438.003 22.5495 457.881 11.9109C470.613 5.09679 481.188 1.66182 489.603 1.66182C496.646 1.66182 501.639 5.30444 500.07 13.835C501.237 12.4736 502.855 10.6929 503.939 9.57122C509.031 4.29889 513.221 1.66182 516.507 1.66182C520.493 1.66182 522.486 2.43722 522.486 3.98891C522.486 4.65358 520.792 7.05508 517.338 11.191C502.702 28.7179 493.186 45.108 478.77 62.5271C500.97 47.4351 517.732 35.7633 537.35 19.6886C546.176 12.4571 561.831 1.66182 572.974 1.66182C575.189 1.66182 576.518 1.9946 576.96 2.65897C576.739 3.1577 570.649 11.191 558.691 26.9255C548.727 39.8888 543.744 47.9224 543.744 51.1359C543.966 51.3574 544.298 51.8006 544.741 52.5205C545.184 53.1855 545.959 53.5179 547.066 53.5179C552.38 53.5179 574.414 37.4516 613.166 5.37406C616.044 2.88043 619.255 1.66182 622.798 1.66182C627.449 1.66182 629.774 2.21606 629.774 3.32394C629.774 4.48764 624.182 11.745 613 25.2079C604.458 35.5335 599.178 42.8853 597.161 47.2629C594.898 52.1766 596.743 54.579 602.02 53.0096C609.458 50.799 645.428 25.5209 652.257 18.1402C658.629 11.2549 662.441 7.35906 664.665 5.42777C669.271 1.42836 675.838 1.66182 678.933 1.66182C681.369 1.66182 682.809 1.9946 683.252 2.65897C682.809 3.37915 676.608 11.5787 664.65 27.2574C657.444 36.6825 652.902 43.4702 651.026 47.6659C649.101 51.9722 650.997 54.6519 655.633 52.9172C664.152 49.7301 685.464 33.914 719.457 5.37406C722.373 2.92544 725.546 1.66182 729.089 1.66182C733.74 1.66182 736.065 2.21606 736.065 3.32394C736.065 4.70909 730.473 11.9664 719.291 25.2079C710.791 35.2718 705.521 42.5517 703.482 47.0462C701.46 51.5026 702.69 54.6381 707.876 53.0504C710.882 52.1295 714.909 49.8474 719.955 46.2051C726.709 41.3298 730.308 38.8919 730.75 38.8919L731.082 39.8888L730.418 41.5509L708.495 77.1189C704.731 83.3239 701.521 86.4264 698.863 86.4264C689.679 86.4264 685.348 65.4844 695.873 65.4844C698.309 73.2407 700.523 77.1189 702.517 77.1189C703.624 77.1189 706.945 72.742 712.482 63.9888C718.903 53.9056 722.557 48.4205 723.442 47.5347C711.042 56.6201 701.521 61.1633 694.877 61.1633C688.013 61.1633 684.58 58.504 684.58 53.1302C684.58 42.1793 700.436 27.0942 708.154 19.1079C692.968 31.8107 679.173 42.173 667.681 50.4818C657.1 58.1316 647.817 61.1633 643.06 61.1633C635.753 61.1633 632.099 58.504 632.099 53.1302C632.099 42.834 640.348 34.7653 646.524 27.5299C630.386 38.3413 622.014 46.9373 603.545 56.6402C597.813 59.6518 592.826 61.1633 588.586 61.1633C581.722 61.1633 578.288 58.504 578.288 53.1302C578.288 47.6584 582.347 40.3035 590.46 31.0972C592.287 29.0254 597.287 23.6805 599.525 21.4206C591.447 27.0104 576.949 40.122 562.92 49.6944C553.139 56.3684 543.504 61.1633 536.769 61.1633C529.461 61.1633 525.808 58.504 525.808 53.1302C525.808 44.4319 532.926 33.2247 552.855 14.0556C542.604 20.3016 536.857 25.7285 527.737 33.0924C511.141 46.4935 494.422 57.4759 475.2 68.6625C447.208 110.681 418.391 143.929 390.216 166.293C382.057 172.77 368.887 182.538 356.059 188.419C346.396 192.849 320.533 199.764 320.533 181.828C320.533 171.69 330.166 158.615 349.431 142.715C380.991 116.145 419.838 94.8642 455.39 73.7398C460.705 66.6481 468.254 55.7166 476.89 42.6969C467.682 50.9868 453.042 61.1633 440.111 61.1633C419.22 61.1633 428.092 39.5872 437.465 29.5236C428.876 36.3746 419.351 45.6262 409.22 51.5233C397.467 58.3642 386.633 61.8282 376.668 61.8282C364.489 61.8282 358.399 57.7283 358.399 49.5287C358.399 41.2052 363.25 35.5329 367.706 29.1422C358.558 38.1465 344.353 49.484 332.945 55.6797C326.222 59.3301 320.313 61.1633 315.219 61.1633C308.576 61.1633 305.254 58.8917 305.254 54.4044C305.254 42.32 325.887 22.3989 333.409 11.5418C336.607 6.92695 333.256 6.69649 329.307 7.83138C308.899 13.7045 263.995 61.1633 253.437 61.1633C249.673 61.1633 247.79 60.4983 247.79 59.1135C247.79 55.9552 253.106 47.1464 263.734 32.687C270.666 23.2568 275.385 16.8655 277.89 13.5004C281.58 8.54046 278.927 7.53131 274.188 9.65584C272.277 10.5123 269.996 11.9115 267.343 13.8533C243.506 31.3096 222.895 61.8282 189.331 61.8282C177.595 61.8282 171.726 57.8393 171.726 49.8612C171.726 40.7398 176.697 33.8669 181.871 26.9003C168.265 37.8594 149.57 61.1633 129.21 61.1633C124.339 61.1633 121.017 59.3904 119.246 55.8447C118.36 53.6287 117.917 49.7505 117.917 44.2105C117.917 25.0677 103.285 36.3284 93.7667 44.7599C80.9736 56.092 71.7319 61.1633 68.0927 61.1633C64.036 61.1633 61.9838 61.3511 63.0486 56.6381C65.4513 46.0337 80.8216 27.3054 87.4693 18.4724C79.1029 26.6761 49.7778 46.5322 38.069 53.5287C29.552 58.618 22.0669 61.1633 15.612 61.1633C5.2039 61.1633 0 56.9529 0 48.5316C0 44.0998 1.43958 40.055 4.31814 36.3986C7.1973 32.7422 10.7397 30.9138 14.9475 30.9138C20.2618 30.9138 22.919 33.0191 22.919 37.2301C22.919 39.2241 21.5907 41.5509 18.9331 44.2105C16.2759 46.8698 14.9475 49.1965 14.9475 51.1912C14.9475 52.9637 16.3868 53.8501 19.2651 53.8501C26.3511 53.8501 35.8732 46.2051 47.8309 30.9138C41.4093 33.1305 35.8732 34.2378 31.2231 34.2378C19.7463 34.2378 21.9214 24.8109 28.3058 23.3033C33.4963 22.0766 30.5586 24.0484 30.5586 26.2605C30.5586 31.0543 45.9292 29.3651 49.4921 28.9192C55.4708 21.3846 58.46 15.4017 58.46 10.9696C58.46 6.98037 55.8027 4.98636 50.4882 4.98636C45.1739 4.98636 38.0879 8.08855 29.23 14.2935C22.6483 18.9045 18.5109 21.802 16.8207 22.9864C14.7673 24.4232 14.033 22.8121 15.2795 20.9414C22.5874 10.8868 45.0666 0 57.4639 0C66.764 0 71.4147 4.21037 71.4147 12.6314C71.4147 19.501 66.7796 27.9281 59.9148 34.798C74.0258 26.5135 84.3412 17.1661 94.5451 9.35217ZM404.978 8.43243C395.811 14.5681 384.574 28.8082 379.295 38.3764C400.197 31.5779 412.399 23.2421 415.44 13.591C418.525 3.80346 411.515 4.05643 404.978 8.43243ZM497.242 11.0251C497.242 6.98037 495.249 4.98636 491.263 4.98636C485.506 4.98636 475.873 11.4677 462.366 24.3764C448.857 37.285 442.103 46.537 442.103 52.1328C442.103 54.8479 443.654 56.1769 446.754 56.1769C453.175 56.1769 463.196 50.1382 476.814 38.0055C490.433 25.8722 497.242 16.8973 497.242 11.0251ZM451.865 80.1221C419.769 100.382 379.67 122.008 352.858 147.639C339.053 160.836 332.159 172.02 332.159 181.163C332.159 193.841 349.144 187.96 356.113 184.503C365.767 179.716 375.564 171.96 386.344 161.154C413.502 133.927 440.92 94.8057 451.865 80.1221ZM810.309 57.5876C804.655 60.1211 799.558 61.1633 795.521 61.1633C788.657 61.1633 785.224 58.504 785.224 53.1302C785.224 47.1683 790.041 38.9715 799.674 28.5789C800.872 27.2865 804.839 23.074 806.187 21.7132C792.095 31.0297 760.537 61.1633 743.704 61.1633C736.397 61.1633 732.743 58.504 732.743 53.1302C732.743 49.0594 734.925 43.836 739.29 37.4663C745.814 27.9425 758.228 14.5237 766.936 6.34871C769.875 3.58861 773.422 1.66182 779.909 1.66182C782.124 1.66182 783.453 1.9946 783.896 2.65897C783.674 3.1577 777.584 11.191 765.627 26.9255C758.428 36.2909 753.829 43.0843 751.831 47.3442C749.389 52.5541 752.167 54.8587 757.267 52.5499C765.896 48.6426 786.891 32.9657 820.101 5.37406C823.03 2.94014 826.19 1.66182 829.733 1.66182C834.384 1.66182 836.709 2.21606 836.709 3.32394C836.709 4.48764 831.118 11.745 819.935 25.2079C810.898 36.1318 805.512 43.7271 803.778 47.9938C802.052 52.2405 803.832 54.2234 808.246 53.2248C816.876 51.2707 857.596 20.0208 862.978 14.1054C865.383 11.4605 868.089 8.57197 870.379 6.41082C875.88 1.21561 878.905 1.66182 886.201 1.66182C889.31 1.66182 890.606 2.17855 888.52 4.98936C885.949 8.45224 880.444 15.7678 871.918 26.9255C864.18 37.0516 859.411 44.1382 857.697 48.3044C856.196 51.9527 858.227 54.4398 862.026 53.1644C869.503 50.6483 891.01 34.7641 926.392 5.37406C929.321 2.94074 932.482 1.66182 936.024 1.66182C940.675 1.66182 943 2.21606 943 3.32394C943 4.48764 937.408 11.745 926.226 25.2079C917.422 35.8498 912.084 43.3337 910.211 47.6572C908.331 52.0008 909.814 54.212 914.521 53.259C918.445 52.4635 923.372 49.8327 929.296 45.3685C932.855 42.6864 937.104 42.5967 930.378 47.7562C918.682 56.7276 909.12 61.1633 901.812 61.1633C894.948 61.1633 891.515 58.504 891.515 53.1302C891.515 46.4265 899.28 35.0987 911.459 22.7995C908.031 24.8715 905.745 26.7545 902.77 29.1797C876.618 50.5019 859.026 61.1633 849.995 61.1633C842.688 61.1633 839.034 58.504 839.034 53.1302C839.034 42.2195 846.733 33.5881 853.706 26.2743C841.846 35.2487 822.553 52.1001 810.309 57.5876Z" fill="white"/>
</svg>
