<svg width="414" height="61" viewBox="0 0 414 61" fill="none" xmlns="http://www.w3.org/2000/svg">
<path d="M253.846 47.0551C242.205 55.8991 231.779 60.3414 224.529 60.3414C217.718 60.3414 214.312 57.706 214.312 52.3805C214.312 46.8925 218.436 39.4931 226.684 30.2141C228.419 28.2616 233.995 22.4324 236.095 20.3134C222.714 31.2804 192.484 60.3414 175.094 60.3414C165.338 60.3414 164.686 53.3961 167.021 46.8102C168.983 41.2764 174.366 33.9682 178.56 29.3093C171.309 35.6779 162.993 42.7935 155.32 49.0865C145.85 56.8537 137.413 60.3414 130.602 60.3414C124.231 60.3414 121.045 57.5959 121.045 52.1063C121.045 51.3212 121.095 50.568 121.194 49.8488C120.729 50.1402 120.212 50.4523 119.633 50.7884C107.963 57.5521 97.2223 61 87.335 61C75.251 61 69.2089 56.9373 69.2089 48.8119C69.2089 42.8827 71.8459 36.4043 77.1187 29.3771C72.4768 33.9726 62.7724 42.097 56.3562 46.5062C42.2944 56.1686 29.3313 61 17.4672 61C5.82229 61 0 57.047 0 49.1414C0 44.5045 1.47813 39.6133 4.43375 34.4673C9.46524 25.7069 22.1914 14.5589 31.282 9.87947C42.2663 4.2246 50.9726 1.37762 57.3996 1.37762C65.0347 1.37762 68.8795 4.45223 68.8795 10.6011C68.8795 13.8952 67.726 17.1341 65.4189 20.3184C63.1118 23.5027 60.4208 25.0946 57.3447 25.0946C54.2689 25.0946 52.7306 23.5576 52.7306 20.4833C52.7306 19.1654 53.6094 16.9695 55.3673 13.8952C57.1249 10.8209 58.0037 8.51462 58.0037 6.97732C58.0037 5.44032 56.905 4.67198 54.708 4.67198C49.2154 4.67198 41.5254 10.6011 31.6384 22.4046C21.7514 34.2084 16.8082 43.2122 16.8082 49.416C16.8082 53.6432 19.3346 55.7295 24.3881 55.7295C33.396 55.7295 44.4368 51.0081 57.5094 41.5648C71.874 31.189 80.4976 20.7642 96.8378 11.699C109.691 4.83625 120.237 1.37762 128.421 1.37762C134.848 1.37762 138.088 4.23248 138.088 9.99707C138.088 19.9344 121.5 30.2006 88.3239 40.7965C87.0057 45.2432 86.3464 48.2081 86.3464 49.7454C86.3464 53.753 88.873 55.7295 93.9266 55.7295C100.737 55.7295 108.798 53.1646 117.985 47.8238C124.048 44.299 126.467 40.2476 133.569 40.2476C139.374 40.2476 139.784 42.3937 138.512 47.0003C137.82 49.5071 136.809 53.4238 140.489 53.4238C142.95 53.4238 148.132 50.4053 156.037 44.3828C169.318 34.262 182.099 22.6477 194.562 11.4738C197.307 9.01182 200.046 6.54254 202.777 4.06791C204.305 2.68446 207.831 2.03624 213.324 2.03624C214.422 2.03624 215.301 2.36602 215.96 3.02464C215.74 4.39706 210.138 11.6441 199.152 24.8752C190.664 35.0981 185.455 42.5031 183.526 47.0886C181.638 51.5763 183.196 54.6941 188.271 52.5757C193.999 50.1837 204.336 42.744 219.256 30.2554C241.675 11.4896 253.421 1.76195 254.519 1.04815C255.618 0.389529 257.486 0.059746 260.122 0.059746C264.736 0.059746 267.043 0.608965 267.043 1.76195C267.043 2.42057 261.22 9.72278 249.576 23.7222C240.489 34.6473 234.947 42.4631 232.952 47.1693C231.033 51.6936 232.312 54.5632 237.499 52.9326C241.359 51.7175 246.958 48.292 254.19 42.4984C268.889 30.7224 279.405 20.9351 296.704 7.96572C302.417 3.57386 307.14 1.37762 310.875 1.37762C314.171 1.37762 316.148 1.70709 316.808 2.36602C310.436 10.3265 304.174 18.2871 298.022 26.2476C290.823 35.4027 286.244 42.0545 284.288 46.2017C281.876 51.3127 285.269 54.4917 290.047 52.5577C295.082 50.5194 303.904 45.5869 308.042 36.5191C310.445 31.2536 300.838 28.1251 304.428 23.6698C308.169 19.0258 316.808 22.3961 316.808 31.3535C316.808 44.0616 288.646 60.3414 276.271 60.3414C268.801 60.3414 265.066 57.706 265.066 52.3805C265.066 44.5802 275.448 30.839 280.513 24.3061C271.11 31.9135 265.226 38.4095 253.846 47.0551ZM404.205 45.5427C397.652 50.6597 391.673 54.4541 386.262 56.9193C379.253 60.1122 363.047 64.05 363.047 51.6813C363.047 47.2207 365.342 40.9362 369.686 35.3901C360.744 43.7996 340.575 60.3414 326.398 60.3414C319.048 60.3414 316.021 57.2141 316.972 50.9895C318.007 44.2211 320.003 40.3665 327.572 40.4607C334.301 40.544 335.11 42.8852 333.242 48.332C331.474 53.4847 333.796 53.7924 340.203 51.9934C345.951 50.3791 354.264 44.66 365.144 34.838C363.464 35.258 361.994 35.4673 360.734 35.4673C352.852 35.4673 345.879 31.6644 347.189 20.0397C348.616 7.36795 360.134 1.6557 371.333 0.282965C379.306 -0.694405 390.217 0.6654 394.44 7.44519C398.221 4.50678 404.266 1.4618 410.776 1.4618C414.008 1.4618 414.797 2.21437 412.93 4.29869C406.847 11.0905 381.21 43.7876 381.21 49.636C381.21 51.5255 382.155 52.4701 384.045 52.4701C388.573 52.4701 394.713 49.3349 402.463 43.065C404.522 41.399 410.371 40.7284 404.205 45.5427ZM384.873 11.1195C385.133 8.19272 383.699 6.18628 380.556 5.9845C371.795 5.42204 360.832 13.6814 357.536 22.9907C355.395 29.0388 356.373 33.7033 363.548 31.84C373.303 29.3071 384.291 17.6647 384.873 11.1195ZM119.89 5.80479C115.833 7.1359 110.707 11.2636 104.473 18.1225C98.8032 24.3603 93.9935 30.4537 89.8045 37.784C110.383 31.0988 122.561 22.8961 125.724 13.4223C127.545 7.96919 126.626 3.59436 119.89 5.80479Z" fill="white"/>
</svg>
