<svg width="587" height="61" viewBox="0 0 587 61" fill="none" xmlns="http://www.w3.org/2000/svg">
<path d="M118.784 39.8597C112.642 44.7013 107.848 47.122 104.4 47.122C101.814 47.122 100.09 46.799 99.2285 46.153C83.9298 55.1907 71.0003 59.7092 60.4423 59.7092C49.4525 59.7092 43.9582 55.9431 43.9582 48.4129C43.9582 43.2489 45.8972 37.7614 49.776 31.9526C40.2951 36.4706 34.4767 38.7304 32.3226 38.7304C29.5209 38.7304 27.3656 38.085 25.8572 36.7942C22.6248 41.2582 19.3931 45.6159 16.1607 49.8652C10.9892 56.4276 7.32677 59.7092 5.17144 59.7092C1.72402 59.7092 0 57.88 0 54.2754C0 50.562 2.662 44.5765 7.98599 36.3525C14.8471 25.7505 20.9988 19.8635 29.0896 10.9733C35.9844 3.65837 42.6649 0 49.129 0C51.9307 0 53.5469 0.323014 53.9782 0.967817V1.61384C53.9782 1.61384 50.3145 6.13236 42.9883 15.1694C35.0158 25.0672 30.7052 30.4465 30.0594 31.3066C30.7052 32.8128 32.3226 33.5665 34.908 33.5665C38.3554 33.5665 47.5667 28.5634 62.5425 18.5586C77.5189 8.55313 90.8246 3.5507 102.46 3.5507C102.676 3.5507 103.215 3.5507 104.076 3.5507C104.939 3.5507 105.585 3.5507 106.016 3.5507C105.37 3.98139 104.184 4.62619 102.46 5.48695C95.7804 8.6608 87.0543 15.4386 76.2801 25.6582C64.4283 37.0089 58.5033 45.6691 58.5033 51.6399C58.5033 54.4376 60.1189 55.8355 63.3512 55.8355C72.1864 55.8355 82.6365 49.7575 94.7034 37.5466C95.1347 34.7496 96.697 31.1451 99.3902 26.6272C102.084 22.1625 104.508 19.2572 106.662 17.9664C107.74 17.5357 109.356 16.6756 111.511 15.4386C112.158 13.9324 112.48 11.3501 112.48 7.74559C112.48 7.31613 112.318 6.77778 111.996 6.13236C111.673 5.48695 111.511 4.94859 111.511 4.51852C111.511 3.8731 111.834 3.5507 112.48 3.5507C114.851 3.5507 116.898 4.73386 118.622 7.10079C120.346 9.46711 121.208 11.9423 121.208 14.524C121.208 22.9156 114.743 32.7051 101.814 43.8944C102.676 44.1091 103.539 44.2168 104.4 44.2168C108.71 44.2168 113.72 41.3659 119.43 35.6636C128.347 26.7624 131.37 20.8019 143.51 13.394C153.207 7.47642 160.425 4.51852 165.166 4.51852C169.26 4.51852 171.307 5.05626 171.307 6.13236C171.307 6.99312 166.243 13.9862 156.116 27.1117C157.84 28.1872 158.702 29.5857 158.702 31.3066C158.702 32.3821 158.216 33.5127 157.247 34.6958C156.277 35.879 155.793 36.6865 155.793 37.1166C155.793 39.0522 157.193 40.0213 159.994 40.0213C168.398 40.0213 176.263 37.0089 183.59 30.9836C184.02 30.7689 189.622 25.0672 200.397 13.8786C206.43 7.63792 211.817 4.51852 216.558 4.51852C221.084 4.51852 223.346 5.16393 223.346 6.45476C223.346 6.88545 218.444 13.1793 208.639 25.3364C198.835 37.4928 193.932 45.1852 193.932 48.4129C193.932 49.919 194.256 51.0484 194.902 51.8021C195.549 52.5545 196.302 52.9308 197.165 52.9308C198.918 52.9308 202.037 51.2386 206.518 47.8537C216.433 40.3687 219.322 35.5241 226.253 29.0688C232.475 23.2778 240.294 17.6954 249.85 12.5871C262.085 6.04549 272.691 2.797 281.525 2.58166L283.464 4.19551C283.249 4.41085 282.064 5.05626 279.908 6.13236C272.799 9.57478 264.287 16.3526 254.375 26.4657C243.385 37.6543 237.891 46.5837 237.891 53.2538C237.891 56.2661 239.4 57.7723 242.416 57.7723C250.82 57.7723 260.84 51.156 272.475 37.8691C275.276 26.5195 280.664 19.1496 288.636 15.6539C289.283 14.0933 289.606 11.404 289.606 7.47642C289.606 7.04696 289.445 6.45476 289.121 5.70168C288.798 4.94859 288.636 4.30318 288.636 3.8731C288.636 3.01235 289.283 2.58166 290.576 2.58166C292.515 2.58166 294.185 3.92694 295.585 6.67011C296.986 9.41327 297.687 11.8885 297.687 14.0395C297.687 21.7318 291.545 31.3066 279.263 42.9259C279.909 43.1413 280.555 43.2489 281.202 43.2489C286.158 43.2489 291.76 40.6661 298.01 35.5033C303.027 31.4027 308.856 26.76 314.081 22.9125C318.428 19.7136 323.699 16.4168 329.9 13.0172C342.56 6.07914 352.418 2.58166 359.476 2.58166C366.963 2.58166 370.734 5.59462 370.734 11.6193C370.734 14.8464 369.603 18.0202 367.34 21.1403C365.078 24.2603 362.438 25.8197 359.422 25.8197C356.405 25.8197 354.896 24.3135 354.896 21.3018C354.896 20.0109 355.759 17.8587 357.483 14.8464C359.206 11.8347 360.068 9.57478 360.068 8.06861C360.068 6.56305 358.99 5.80874 356.836 5.80874C351.449 5.80874 343.907 11.6193 334.21 23.1842C324.514 34.7496 319.666 43.5713 319.666 49.6499C319.666 53.7922 322.143 55.8355 327.099 55.8355C335.934 55.8355 346.762 51.2099 359.583 41.9581C370.098 34.3697 375.243 28.5995 384.843 20.1804C387.079 18.2185 389.599 16.0485 392.39 13.6632C401.012 6.29693 408.552 2.58166 415.016 2.58166C420.402 2.58166 423.096 5.05626 423.096 10.0593C423.096 13.7709 416.201 24.5827 402.41 42.6029L403.38 42.9259C435.055 16.0295 455.957 2.58166 466.085 2.58166C472.98 2.58166 476.428 5.05626 476.428 10.0593C476.428 13.7709 473.519 19.2572 467.701 26.681C463.176 31.845 458.651 37.1704 454.125 42.6029L455.095 42.9259C486.771 16.0295 507.78 2.58166 518.123 2.58166C524.803 2.58166 528.143 4.94859 528.143 9.73629C528.143 13.394 523.941 20.4948 515.537 30.9836C507.133 41.5274 502.932 48.1437 502.932 50.9945L503.255 52.2854C503.901 52.5007 504.656 52.6084 505.517 52.6084C510.043 52.6084 516.938 48.8436 526.204 41.3121C533.132 35.8043 537.464 30.7432 544.48 25.6215C549.101 22.2476 555.512 17.9756 563.374 12.3186C564.363 11.6071 565.529 10.3285 567.253 9.03643C572.855 4.73386 577.489 2.58166 581.151 2.58166C584.383 2.58166 586.323 2.90467 586.969 3.5507C580.721 11.3501 574.579 19.1496 568.546 26.9502C558.85 39.2682 554.001 46.9605 554.001 50.0267C554.001 50.2421 554.324 50.7254 554.97 51.4791C555.617 52.2321 556.479 52.6084 557.556 52.6084C559.053 52.6084 560.952 51.8706 563.248 50.3956C566.07 48.5854 572.506 43.5909 576.758 39.0632C580.762 34.7986 582.741 28.167 573.565 30.8197C572.894 31.0136 570.377 29.6426 570.02 28.6216C569.752 27.8599 571.319 27.4898 572.343 27.0316C581.473 22.948 586.969 27.4335 586.969 31.9526C586.969 41.6798 568.73 53.0849 560.763 56.6057C555.101 59.1103 550.584 60.3546 547.213 60.3546C539.887 60.3546 536.224 57.7723 536.224 52.5545C536.224 50.1344 537.948 45.7223 541.449 39.2137C544.896 32.7051 548.506 27.7027 552.331 24.2064C552.762 23.561 553.354 22.8073 554.001 21.9472C550.894 24.1086 548.008 26.4278 545.209 28.8363C538.287 34.7925 531.92 41.3476 523.941 47.3368C512.34 56.0435 502.608 60.3546 494.851 60.3546C488.603 60.3546 485.477 57.8261 485.477 52.8231C485.477 47.8207 490.219 39.6444 499.7 28.3487C509.18 16.9986 513.921 10.8118 513.921 9.68245C513.921 8.60697 513.167 8.06861 511.659 8.06861C505.194 8.06861 491.835 16.7832 471.58 34.2113C451.325 51.6399 439.041 60.3546 434.732 60.3546C431.285 60.3546 429.561 59.7092 429.561 58.3645C429.561 53.953 435.001 44.9698 445.884 31.4143C456.766 17.8587 462.205 10.7041 462.205 10.0593C462.205 8.71463 461.344 8.06861 459.62 8.06861C453.802 8.06861 440.442 16.7832 419.54 34.2113C398.64 51.6399 386.465 60.3546 383.017 60.3546C379.354 60.3546 377.522 59.7092 377.522 58.3645C377.522 55.2983 382.693 46.799 393.037 32.8666C403.38 18.9348 408.66 11.8885 408.874 11.6725C408.444 10.3285 407.797 9.68245 406.936 9.68245C403.272 9.68245 396.7 13.8786 387.219 22.2702C376.83 31.4626 370.685 38.4001 358.452 46.799C344.661 56.2661 331.948 61 320.311 61C308.891 61 303.182 57.1275 303.182 49.3807C303.182 44.1966 305.07 38.6888 308.844 32.855C310.1 30.9096 309.706 30.8845 308.12 32.2848C306.1 34.0694 303.267 36.1121 299.626 38.4074C291.438 43.5713 285.727 46.153 282.495 46.153C279.694 46.153 277.754 45.8306 276.677 45.1852C261.593 55.7284 249.311 61 239.83 61C229.272 61 223.992 57.0198 223.992 49.0577C223.992 44.2957 225.074 39.7252 227.23 35.3492C227.608 34.5845 227.728 34.3581 226.955 35.1975C221.616 40.9934 216.538 47.1532 208.8 51.963C200.075 57.3887 193.07 60.3546 187.468 60.3546C180.142 60.3546 176.478 57.2352 176.478 50.9945C176.478 46.2607 178.633 40.9891 182.943 35.1797C176.263 39.9136 169.152 42.2805 161.61 42.2805C156.008 42.2805 152.021 40.4519 149.651 36.7942C146.634 41.5274 141.678 48.1975 134.783 56.8045C130.905 58.526 127.242 59.3862 123.794 59.3862C119.053 59.3862 116.682 58.526 116.682 56.8045C116.682 53.7922 121.531 46.3683 131.228 34.5343C137.806 26.2387 143.271 19.8152 147.622 15.2697C148.924 13.9024 147.222 14.7436 147.016 14.8709C136.919 21.0693 128.048 32.5546 118.784 39.8597Z" fill="white"/>
</svg>
