<svg width="515" height="220" viewBox="0 0 515 220" fill="none" xmlns="http://www.w3.org/2000/svg">
<path d="M137.986 70.3911C129.62 76.8361 116.76 86.292 105.9 86.292C98.9297 86.292 95.4458 83.6044 95.4458 78.1741C95.4458 68.1086 109.342 53.9164 116.466 46.7557C101.522 57.4986 74.1498 86.292 55.3111 86.292C49.0157 86.292 45.868 83.3807 45.868 77.6144C45.868 70.8064 53.7841 60.8623 57.6722 55.0538C50.2514 61.5473 42.7203 68.1533 35.075 74.8155C25.1828 82.4848 16.7509 86.292 9.78056 86.292C3.26061 86.292 0 83.4932 0 77.8942C0 70.4384 4.41934 65.8031 12.8166 65.8031C16.638 65.8031 18.55 66.9226 18.55 69.2179C18.55 69.9451 18.3241 71.0646 17.875 72.6889C16.5071 77.6246 17.0486 81.0151 22.9706 78.3837C28.4614 75.9453 38.6898 68.3028 53.625 55.4461C63.7546 46.7263 73.7481 37.8672 83.6416 28.9097C85.2148 27.5103 88.8129 26.8393 94.4333 26.8393C96.0566 26.8393 97.649 27.2176 96.6161 28.9519C94.9659 31.7226 89.4045 38.758 79.9306 50.1271C70.7121 61.192 65.2726 69.0185 63.6134 73.6066C62.0466 77.9415 64.205 80.2458 68.6603 78.4297C74.495 76.0514 85.1173 68.4473 100.504 55.6136C123.447 36.478 135.466 26.5594 136.592 25.831C137.716 25.1588 139.626 24.8226 142.325 24.8226C147.046 24.8226 149.407 25.3837 149.407 26.5594C149.407 27.2304 143.449 34.676 131.532 48.9513C122.657 59.583 117.087 67.3277 114.822 72.1841C112.174 77.861 114.05 80.7531 120.258 78.3569C124.139 76.8578 129.493 73.4711 136.254 68.0984C145.728 60.5696 153.035 52.3074 162.247 44.6764C165.492 41.99 169.289 38.9139 173.69 35.5157C181.767 29.2803 189.879 26.1671 197.972 26.1671C200.037 26.1671 203.191 26.3741 201.405 28.8036C199.667 31.1666 194.251 38.1535 185.157 49.791C176.92 60.3332 171.7 67.8696 169.499 72.4001C166.803 77.9479 168.758 79.4534 174.281 77.2616C188.12 71.7688 208.913 53.8116 221.506 43.6757C227.181 39.1082 232.783 34.4524 238.444 29.8618C241.549 27.3441 244.853 26.1671 248.225 26.1671C252.721 26.1671 254.971 26.7269 254.971 27.8464C254.971 27.8464 233.667 56.6219 191.06 114.172C151.492 167.614 130.298 198.657 127.473 207.298C126.671 209.753 127.658 211.143 130.169 209.466C131.837 208.351 134.021 206.065 136.592 202.512C162.181 167.137 187.637 129.099 216.09 96.0815C233.509 75.8673 256.908 52.3751 276.892 34.2287C275.692 27.1512 277.696 20.4353 285.655 18.7189C293.557 17.0166 296.625 23.2673 290.975 29.0477C290.975 33.2434 298.315 33.8926 301.175 33.8926C306.346 33.8926 312.755 32.7731 320.399 30.534C328.044 28.2937 332.091 27.1742 332.54 27.1742C334.788 27.1742 335.914 27.9589 335.914 29.5257C335.914 31.0938 335.014 33.1092 333.215 35.5719C319.617 53.8013 294.404 62.9646 274.446 72.5369C284.704 68.8025 296.547 71.0812 300.838 82.2612C322.067 68.1661 343.161 48.1283 363.849 36.6914C377.003 29.6931 387.795 26.1671 396.17 26.1671C402.747 26.1671 406.064 29.0784 406.064 34.9559C406.064 45.0892 389.088 55.5573 355.138 66.3628C351.547 72.8653 350.124 81.5902 360.871 81.5902C367.841 81.5902 376.047 78.9026 385.49 73.5286C405.096 62.0815 410.378 52.0211 427.649 39.9951C440.914 30.7577 450.695 26.1671 456.99 26.1671C459.463 26.1671 460.925 26.5032 461.375 27.1742C461.15 27.679 454.967 35.7956 442.825 51.6952C435.261 61.4885 430.524 68.4984 428.615 72.7682C426.743 76.9575 428.642 79.7116 433.177 77.9671C441.501 74.7657 463.205 58.7971 498.136 29.918C501.111 27.4592 504.32 26.1671 507.917 26.1671C512.639 26.1671 515 26.7269 515 27.8464C515 29.2458 509.322 36.5803 497.968 49.9597C489.142 60.3601 483.746 67.8172 481.78 72.3324C479.785 76.9153 481.144 79.3537 486.238 78.2725C490.129 77.4469 494.977 74.8756 500.781 70.5598C505.665 66.9021 508.502 67.9437 502.183 72.7439C490.287 81.7832 480.599 86.292 473.179 86.292C466.209 86.292 462.724 83.6044 462.724 78.1741C462.724 67.3149 474.252 55.4334 481.525 48.2369C451.397 73.3177 430.459 86.292 420.565 86.292C413.146 86.292 409.436 83.6044 409.436 78.1741C409.436 64.8279 431.711 44.0412 440.369 35.3253C437.994 36.9522 434.253 39.5094 430.309 42.5038C415.29 53.9023 403.862 66.9507 387.176 76.5511C375.261 83.4932 364.243 86.9642 354.125 86.9642C341.759 86.9642 335.576 82.8209 335.576 74.5357C335.576 66.6938 339.798 59.9971 344.275 53.8934C339.371 56.7919 324.052 70.2083 301.85 85.2849C304.351 102.722 291.806 121.01 281.614 133.99C271.72 146.753 260.367 158.734 247.55 169.931C209.327 203.296 180.435 219.979 160.874 219.979C151.431 219.979 146.71 216.06 146.71 208.222C146.71 180.454 210.288 139.796 235.37 123.758C249.325 114.836 267.662 103.243 290.383 88.9796C291.565 81.9084 290.109 74.1995 281.276 74.1995C276.33 74.1995 271.384 75.9913 266.438 79.5748C262.856 82.3481 259.187 85.1214 255.43 87.8959C252.478 90.0762 250.104 85.5635 255.26 81.5762C264.082 74.7491 273.84 69.2652 283.921 64.4139C299.934 56.7088 313.329 50.9961 325.796 37.2512C328.455 34.6032 327.805 33.0376 324.105 34.4779C319.722 36.1866 315.325 37.8595 310.956 39.6027C304.871 42.0309 299.489 43.2974 294.767 43.2974C286.223 43.2974 280.827 41.282 278.579 37.2512C258.627 56.9785 237.627 76.5178 219.558 97.7122C189.699 132.465 166.939 169.218 139.272 204.37C135.206 209.536 131.895 213.228 129.34 215.444C123.631 220.395 112.983 223.592 112.983 212.589C112.983 204.304 127.598 180.119 156.826 140.036L223.979 46.9921C205.769 61.5269 190.938 72.0295 179.728 78.5013C170.731 83.6951 164.068 86.292 159.863 86.292C154.016 86.292 151.093 83.6044 151.093 78.2304C151.093 64.4676 169.565 46.0324 179.787 36.5534C174.719 39.2577 168.806 43.9301 164.247 47.6644C155.156 55.1087 147.608 62.9761 137.986 70.3911ZM289.371 92.6743C277.68 100.064 260.254 111.204 237.096 126.152C182.234 161.03 154.803 188.573 154.803 208.895C154.803 213.596 157.388 215.948 162.561 215.948C179.199 215.948 203.481 199.434 235.408 166.347C265.763 135.333 283.75 110.757 289.371 92.6743ZM386.449 31.0465C382.457 32.7015 377.55 36.7937 371.663 43.2412C366.525 48.8695 360.418 56.4366 356.938 63.2138C378.888 56.1094 391.321 47.3615 393.79 37.209C395.331 30.8727 392.602 28.4956 386.449 31.0465ZM509.034 3.02503C505.802 11.511 483.741 23.4219 472.864 17.299C466.442 13.6848 465.259 0 473.707 0C482.439 0 479.617 9.00864 473.032 12.6522C473.488 13.7654 474.166 14.6574 475.067 15.3232C483.411 21.5037 500.739 6.80025 507.228 2.1266C508.714 1.05563 510.176 0.029394 509.034 3.02503Z" fill="white"/>
</svg>
