<svg width="39" height="14" viewBox="0 0 39 14" fill="none" xmlns="http://www.w3.org/2000/svg">
<path d="M37.8515 11.6239C37.8515 13.1953 38.4533 13.7447 38.7059 13.7841V14H34.0452V13.7841C34.2977 13.7447 34.8995 13.1953 34.8995 11.6239V0.314435H38.7059V0.53038C38.4533 0.569776 37.8515 1.11912 37.8515 2.68984V11.6239ZM29.637 14H24.9366V13.7841C25.1891 13.7447 25.7909 13.1953 25.7909 11.6239V2.63147C27.0342 3.47556 28.0632 4.49693 28.7819 5.7729V11.6239C28.7819 13.1953 29.3837 13.7447 29.637 13.7841V14ZM24.762 0.53038V0.314435H30.1219C31.2483 1.15852 32.2585 2.47389 32.8798 3.43616C32.996 3.61271 33.0739 3.65211 33.1713 3.65211C33.2875 3.65211 33.3849 3.57332 33.4434 3.47556H33.7342L31.8508 8.08994H31.6365C30.2972 4.63408 27.7724 1.64951 24.762 0.53038ZM21.8879 2.68984V11.6239C21.8879 13.1953 22.4897 13.7447 22.7422 13.7841V14H18.0808V13.7841C18.3333 13.7447 18.9359 13.1953 18.9359 11.6239V2.68984C18.9359 1.11912 18.3333 0.569776 18.0808 0.53038V0.314435H22.7422V0.53038C22.4897 0.569776 21.8879 1.11912 21.8879 2.68984ZM11.7496 11.5852V7.02918C13.7303 6.67608 16.2559 5.53726 17.4011 4.33934H17.5952V7.8543C16.8967 8.44304 15.7118 9.07118 14.7016 9.42501V11.6239C14.7016 13.1953 15.3034 13.7447 15.5567 13.7841V14H10.8952V13.7841C11.1478 13.7447 11.7496 13.1559 11.7496 11.5852ZM15.5567 0.53038C15.3034 0.569776 14.7016 1.11912 14.7016 2.68984V4.53559C13.8472 5.10537 12.7208 5.43877 11.7496 5.57665V2.68984C11.7496 1.11912 11.1478 0.569776 10.8952 0.53038V0.314435H15.5567V0.53038ZM4.914 14H0V13.7841C0.252555 13.7447 0.854358 13.1953 0.854358 11.6239V5.00688C1.7282 4.55529 2.62224 4.29995 3.80637 4.26055V11.4276C3.80637 12.9195 4.21406 13.4696 4.914 13.7841V14ZM0.854358 3.55435V2.68984C0.854358 1.11912 0.291521 0.589474 0 0.53038V0.314435H7.74911C8.19578 0.314435 8.46781 0.314435 8.73913 0H8.93396V3.88775H8.72037C8.29247 3.39677 7.08886 2.92548 5.03018 2.92548C3.14612 2.92548 2.0392 3.12173 0.854358 3.55435Z" fill="white"/>
</svg>
