<svg width="1300" height="120" viewBox="0 0 1300 120" fill="none" xmlns="http://www.w3.org/2000/svg">
<path fill-rule="evenodd" clip-rule="evenodd" d="M14.5206 87.6387C15.4815 87.4737 16.4618 87.3863 17.4616 87.3863C21.315 87.3863 24.8189 88.4637 27.7794 90.3273V29.6728C24.8189 31.5364 21.315 32.6138 17.4616 32.6138C16.4618 32.6138 15.4815 32.5265 14.5206 32.3615V87.6387ZM5.04726 103.538C5.04726 109.439 7.84267 114.952 14.4138 114.952C19.3058 114.952 22.4603 112.254 22.4603 107.236C22.4603 104.285 20.5094 101.907 17.4616 101.907C14.6079 101.907 14.5691 105.333 15.9765 106.071C19.1214 107.731 17.0054 110.992 13.7926 110.186C10.9196 109.458 9.60921 105.479 10.3275 102.392C11.1234 99.0047 13.9867 96.8596 17.4616 96.8596C23.2853 96.8596 27.5076 101.509 27.5076 107.236C27.5076 115.03 22.1012 119.999 14.4138 119.999C4.98902 119.999 0 112.302 0 103.538V16.4626C0 7.69781 4.98902 0.000732422 14.4138 0.000732422C22.1012 0.000732422 27.5076 4.97034 27.5076 12.7645C27.5076 18.4912 23.2853 23.1405 17.4616 23.1405C13.9867 23.1405 11.1234 20.9954 10.3275 17.6079C9.60921 14.5213 10.9196 10.5417 13.7926 9.81378C17.0054 9.00815 19.1214 12.2695 15.9765 13.9292C14.5691 14.6669 14.6079 18.0932 17.4616 18.0932C20.5094 18.0932 22.4603 15.7152 22.4603 12.7645C22.4603 7.74634 19.3058 5.04799 14.4138 5.04799C7.84267 5.04799 5.04726 10.5612 5.04726 16.4626V103.538Z" fill="black"/>
<path fill-rule="evenodd" clip-rule="evenodd" d="M1262.5 18.1028H37.4951V101.101H1262.5V18.1028Z" fill="black"/>
<path fill-rule="evenodd" clip-rule="evenodd" d="M119.348 82.0963H67.0119C63.702 82.0963 63.6826 77.0976 67.0022 77.0976H119.338C122.658 77.0976 122.668 82.0963 119.348 82.0963ZM119.348 42.0968H67.0119C63.702 42.0968 63.6826 37.098 67.0022 37.098H119.338C122.658 37.098 122.668 42.0968 119.348 42.0968ZM119.348 62.1014H67.0119C63.702 62.1014 63.6826 57.1027 67.0022 57.1027H119.338C122.658 57.1027 122.668 62.1014 119.348 62.1014Z" fill="white"/>
<path fill-rule="evenodd" clip-rule="evenodd" d="M1285.48 87.6387C1284.52 87.4737 1283.54 87.396 1282.54 87.396C1278.69 87.396 1275.18 88.4637 1272.22 90.3273V29.6728C1275.18 31.5364 1278.69 32.6138 1282.54 32.6138C1283.54 32.6138 1284.52 32.5265 1285.48 32.3615V87.6387ZM1294.95 103.538C1294.95 109.439 1292.16 114.952 1285.59 114.952C1280.69 114.952 1277.54 112.254 1277.54 107.236C1277.54 104.285 1279.49 101.907 1282.54 101.907C1285.39 101.907 1285.43 105.333 1284.02 106.071C1280.88 107.731 1282.99 110.992 1286.21 110.186C1289.08 109.458 1290.39 105.479 1289.67 102.392C1288.88 99.0047 1286.01 96.8596 1282.54 96.8596C1276.71 96.8596 1272.49 101.509 1272.49 107.236C1272.49 115.03 1277.9 119.999 1285.59 119.999C1295.01 119.999 1300 112.302 1300 103.538V16.4626C1300 7.69781 1295.01 0.000732422 1285.59 0.000732422C1277.9 0.000732422 1272.49 4.97034 1272.49 12.7645C1272.49 18.4912 1276.71 23.1405 1282.54 23.1405C1286.01 23.1405 1288.88 20.9954 1289.67 17.6079C1290.39 14.5213 1289.08 10.5417 1286.21 9.81378C1282.99 9.00815 1280.88 12.2695 1284.02 13.9292C1285.43 14.6669 1285.39 18.0932 1282.54 18.0932C1279.49 18.0932 1277.54 15.7152 1277.54 12.7645C1277.54 7.74634 1280.69 5.04799 1285.59 5.04799C1292.16 5.04799 1294.95 10.5612 1294.95 16.4626V103.538Z" fill="black"/>
</svg>
