<svg width="1300" height="120" viewBox="0 0 1300 120" fill="none" xmlns="http://www.w3.org/2000/svg">
<path fill-rule="evenodd" clip-rule="evenodd" d="M14.5206 87.6379C15.4815 87.4729 16.4618 87.3856 17.4616 87.3856C21.315 87.3856 24.8189 88.463 27.7794 90.3266V29.6721C24.8189 31.5357 21.315 32.6131 17.4616 32.6131C16.4618 32.6131 15.4815 32.5257 14.5206 32.3607V87.6379ZM5.04726 103.537C5.04726 109.438 7.84267 114.951 14.4138 114.951C19.3058 114.951 22.4603 112.253 22.4603 107.235C22.4603 104.284 20.5094 101.906 17.4616 101.906C14.6079 101.906 14.5691 105.332 15.9765 106.07C19.1214 107.73 17.0054 110.991 13.7926 110.186C10.9196 109.458 9.60921 105.478 10.3275 102.391C11.1234 99.004 13.9867 96.8589 17.4616 96.8589C23.2853 96.8589 27.5076 101.508 27.5076 107.235C27.5076 115.029 22.1012 119.999 14.4138 119.999C4.98902 119.999 0 112.302 0 103.537V16.4618C0 7.69707 4.98902 0 14.4138 0C22.1012 0 27.5076 4.96961 27.5076 12.7637C27.5076 18.4905 23.2853 23.1398 17.4616 23.1398C13.9867 23.1398 11.1234 20.9947 10.3275 17.6072C9.60921 14.5206 10.9196 10.541 13.7926 9.81304C17.0054 9.00742 19.1214 12.2687 15.9765 13.9285C14.5691 14.6662 14.6079 18.0925 17.4616 18.0925C20.5094 18.0925 22.4603 15.7145 22.4603 12.7637C22.4603 7.74561 19.3058 5.04726 14.4138 5.04726C7.84267 5.04726 5.04726 10.5604 5.04726 16.4618V103.537Z" fill="white"/>
<path fill-rule="evenodd" clip-rule="evenodd" d="M1262.5 18.1021H37.4951V101.1H1262.5V18.1021Z" fill="white"/>
<path fill-rule="evenodd" clip-rule="evenodd" d="M1234.83 82.0956H1182.49C1179.18 82.0956 1179.16 77.0968 1182.48 77.0968H1234.82C1238.14 77.0968 1238.15 82.0956 1234.83 82.0956ZM1234.83 42.096H1182.49C1179.18 42.096 1179.16 37.0973 1182.48 37.0973H1234.82C1238.14 37.0973 1238.15 42.096 1234.83 42.096ZM1234.83 62.1006H1182.49C1179.18 62.1006 1179.16 57.1019 1182.48 57.1019H1234.82C1238.14 57.1019 1238.15 62.1006 1234.83 62.1006Z" fill="black"/>
<path fill-rule="evenodd" clip-rule="evenodd" d="M1285.26 87.6379C1284.3 87.4729 1283.32 87.3953 1282.32 87.3953C1278.46 87.3953 1274.96 88.463 1272 90.3266V29.6721C1274.96 31.5357 1278.46 32.6131 1282.32 32.6131C1283.32 32.6131 1284.3 32.5257 1285.26 32.3607V87.6379ZM1294.73 103.537C1294.73 109.438 1291.94 114.951 1285.37 114.951C1280.47 114.951 1277.32 112.253 1277.32 107.235C1277.32 104.284 1279.27 101.906 1282.32 101.906C1285.17 101.906 1285.21 105.332 1283.8 106.07C1280.66 107.73 1282.77 110.991 1285.99 110.186C1288.86 109.458 1290.17 105.478 1289.45 102.391C1288.66 99.004 1285.79 96.8589 1282.32 96.8589C1276.49 96.8589 1272.27 101.508 1272.27 107.235C1272.27 115.029 1277.68 119.999 1285.37 119.999C1294.79 119.999 1299.78 112.302 1299.78 103.537V16.4618C1299.78 7.69707 1294.79 0 1285.37 0C1277.68 0 1272.27 4.96961 1272.27 12.7637C1272.27 18.4905 1276.49 23.1398 1282.32 23.1398C1285.79 23.1398 1288.66 20.9947 1289.45 17.6072C1290.17 14.5206 1288.86 10.541 1285.99 9.81304C1282.77 9.00742 1280.66 12.2687 1283.8 13.9285C1285.21 14.6662 1285.17 18.0925 1282.32 18.0925C1279.27 18.0925 1277.32 15.7145 1277.32 12.7637C1277.32 7.74561 1280.47 5.04726 1285.37 5.04726C1291.94 5.04726 1294.73 10.5604 1294.73 16.4618V103.537Z" fill="white"/>
</svg>
