<?xml version="1.0" encoding="UTF-8"?>
<!DOCTYPE svg PUBLIC "-//W3C//DTD SVG 1.1//EN" "http://www.w3.org/Graphics/SVG/1.1/DTD/svg11.dtd">
<!-- Creator: CorelDRAW -->
<svg xmlns="http://www.w3.org/2000/svg" xml:space="preserve" width="1900px" height="120px" version="1.1" style="shape-rendering:geometricPrecision; text-rendering:geometricPrecision; image-rendering:optimizeQuality; fill-rule:evenodd; clip-rule:evenodd"
viewBox="0 0 70.83 4.47"
 xmlns:xlink="http://www.w3.org/1999/xlink"
 xmlns:xodm="http://www.corel.com/coreldraw/odm/2003">
 <defs>
  <style type="text/css">
   <![CDATA[
    .fil0 {fill:black}
   ]]>
  </style>
 </defs>
 <g id="Layer_x0020_1">
  <metadata id="CorelCorpID_0Corel-Layer"/>
  <path class="fil0" d="M0.54 3.27c0.04,-0.01 0.07,-0.01 0.11,-0.01 0.14,0 0.28,0.04 0.39,0.11l0 -2.26c-0.11,0.07 -0.25,0.11 -0.39,0.11 -0.04,0 -0.07,-0.01 -0.11,-0.01l0 2.06zm-0.35 0.59c0,0.22 0.1,0.42 0.35,0.42 0.18,0 0.3,-0.1 0.3,-0.28 0,-0.11 -0.08,-0.2 -0.19,-0.2 -0.11,0 -0.11,0.13 -0.05,0.15 0.11,0.07 0.03,0.19 -0.09,0.16 -0.1,-0.03 -0.15,-0.18 -0.12,-0.29 0.02,-0.13 0.13,-0.21 0.26,-0.21 0.22,0 0.38,0.17 0.38,0.39 0,0.29 -0.21,0.47 -0.49,0.47 -0.35,0 -0.54,-0.28 -0.54,-0.61l0 -3.25c0,-0.32 0.19,-0.61 0.54,-0.61 0.28,0 0.49,0.19 0.49,0.48 0,0.21 -0.16,0.38 -0.38,0.38 -0.13,0 -0.24,-0.08 -0.26,-0.2 -0.03,-0.12 0.02,-0.27 0.12,-0.29 0.12,-0.03 0.2,0.09 0.09,0.15 -0.06,0.03 -0.06,0.15 0.05,0.15 0.11,0 0.19,-0.08 0.19,-0.19 0,-0.19 -0.12,-0.29 -0.3,-0.29 -0.25,0 -0.35,0.2 -0.35,0.42l0 3.25z"/>
  <polygon class="fil0" points="69.43,0.67 1.4,0.67 1.4,3.77 69.43,3.77 "/>
  <path class="fil0" d="M70.28 3.27c-0.03,-0.01 -0.07,-0.01 -0.11,-0.01 -0.14,0 -0.27,0.04 -0.38,0.11l0 -2.26c0.11,0.07 0.24,0.11 0.38,0.11 0.04,0 0.08,-0.01 0.11,-0.01l0 2.06zm0.36 0.59c0,0.22 -0.11,0.42 -0.35,0.42 -0.18,0 -0.3,-0.1 -0.3,-0.28 0,-0.11 0.07,-0.2 0.18,-0.2 0.11,0 0.11,0.13 0.06,0.15 -0.12,0.07 -0.04,0.19 0.08,0.16 0.11,-0.03 0.16,-0.18 0.13,-0.29 -0.03,-0.13 -0.14,-0.21 -0.27,-0.21 -0.21,0 -0.37,0.17 -0.37,0.39 0,0.29 0.2,0.47 0.49,0.47 0.35,0 0.54,-0.28 0.54,-0.61l0 -3.25c0,-0.32 -0.19,-0.61 -0.54,-0.61 -0.29,0 -0.49,0.19 -0.49,0.48 0,0.21 0.16,0.38 0.37,0.38 0.13,0 0.24,-0.08 0.27,-0.2 0.03,-0.12 -0.02,-0.27 -0.13,-0.29 -0.12,-0.03 -0.2,0.09 -0.08,0.15 0.05,0.03 0.05,0.15 -0.06,0.15 -0.11,0 -0.18,-0.08 -0.18,-0.19 0,-0.19 0.12,-0.29 0.3,-0.29 0.24,0 0.35,0.2 0.35,0.42l0 3.25z"/>
 </g>
</svg>
