<svg width="333" height="48" viewBox="0 0 333 48" fill="none" xmlns="http://www.w3.org/2000/svg">
<path fill-rule="evenodd" clip-rule="evenodd" d="M316.387 7.83138H15.6621V40.7232H316.387V7.83138Z" fill="black"/>
<path fill-rule="evenodd" clip-rule="evenodd" d="M326.39 35.0556C326.005 34.9896 325.613 34.9585 325.213 34.9585C323.672 34.9585 322.27 35.3856 321.086 36.131V11.869C322.27 12.6144 323.672 13.0454 325.213 13.0454C325.613 13.0454 326.005 13.0104 326.39 12.9444V35.0556ZM330.179 41.4152C330.179 43.7758 329.061 45.9811 326.432 45.9811C324.475 45.9811 323.214 44.9017 323.214 42.8944C323.214 41.7141 323.994 40.7629 325.213 40.7629C326.355 40.7629 326.37 42.1335 325.807 42.4285C324.549 43.0925 325.396 44.397 326.681 44.0747C327.83 43.7836 328.354 42.1917 328.067 40.9571C327.748 39.602 326.603 38.744 325.213 38.744C322.884 38.744 321.195 40.6037 321.195 42.8944C321.195 46.0121 323.357 48 326.432 48C330.202 48 332.198 44.9211 332.198 41.4152V6.58481C332.198 3.07886 330.202 0 326.432 0C323.357 0 321.195 1.98787 321.195 5.10556C321.195 7.39626 322.884 9.25601 325.213 9.25601C326.603 9.25601 327.748 8.39796 328.067 7.04295C328.354 5.8083 327.83 4.21645 326.681 3.92526C325.396 3.60301 324.549 4.90755 325.807 5.57146C326.37 5.86654 326.355 7.23708 325.213 7.23708C323.994 7.23708 323.214 6.28585 323.214 5.10556C323.214 3.09828 324.475 2.01893 326.432 2.01893C329.061 2.01893 330.179 4.22422 330.179 6.58481V41.4152Z" fill="black"/>
<path fill-rule="evenodd" clip-rule="evenodd" d="M5.8083 35.0556C6.19267 34.9896 6.58481 34.9546 6.98471 34.9546C8.52609 34.9546 9.92769 35.3856 11.1119 36.131V11.869C9.92769 12.6144 8.52609 13.0454 6.98471 13.0454C6.58481 13.0454 6.19267 13.0104 5.8083 12.9444V35.0556ZM2.01893 41.4152C2.01893 43.7758 3.1371 45.9811 5.76559 45.9811C7.7224 45.9811 8.98423 44.9017 8.98423 42.8944C8.98423 41.7141 8.20383 40.7629 6.98471 40.7629C5.84324 40.7629 5.82771 42.1335 6.39068 42.4285C7.64863 43.0925 6.80223 44.397 5.51711 44.0747C4.36787 43.7836 3.84373 42.1917 4.13104 40.9571C4.44941 39.602 5.59476 38.744 6.98471 38.744C9.31424 38.744 11.0032 40.6037 11.0032 42.8944C11.0032 46.0121 8.84057 48 5.76559 48C1.99563 48 0 44.9211 0 41.4152V6.58481C0 3.07886 1.99563 0 5.76559 0C8.84057 0 11.0032 1.98787 11.0032 5.10556C11.0032 7.39626 9.31424 9.25601 6.98471 9.25601C5.59476 9.25601 4.44941 8.39796 4.13104 7.04295C3.84373 5.8083 4.36787 4.21645 5.51711 3.92526C6.80223 3.60301 7.64863 4.90755 6.39068 5.57146C5.82771 5.86654 5.84324 7.23708 6.98471 7.23708C8.20383 7.23708 8.98423 6.28585 8.98423 5.10556C8.98423 3.09828 7.7224 2.01893 5.76559 2.01893C3.1371 2.01893 2.01893 4.22422 2.01893 6.58481V41.4152Z" fill="black"/>
</svg>
