<svg width="59" height="89" viewBox="0 0 59 89" fill="none" xmlns="http://www.w3.org/2000/svg">
<path d="M0 84.9196C0 86.761 0.924765 89 2.51301 89C5.29024 89 5.55446 84.9196 5.55446 81.3653C5.55446 78.8633 5.29024 76.4928 5.02602 74.1223C11.6374 62.4043 27.373 51.0839 40.6192 46.0798C44.9817 47.5296 48.948 48.1873 52.3887 48.1873C57.0154 48.1873 59 46.4744 59 44.8961C59 42.7886 57.676 41.9994 51.8573 41.9994C49.0801 41.9994 45.7744 42.7886 42.0724 43.9724C28.6941 39.2344 11.7695 27.2533 4.89391 14.4831C5.29024 11.8495 5.55446 9.3475 5.55446 6.58242C5.55446 3.02815 5.29024 0 2.51301 0C0.924765 0 0 2.10743 0 3.94887C0 23.4915 23.034 39.5997 38.8988 45.2906C26.4424 50.5373 0 67.8644 0 84.9196ZM52.5208 46.2114C50.1399 46.2114 47.3626 45.6852 44.3212 44.7645C47.3626 43.9724 50.1399 43.4463 52.5208 43.4463C56.6191 43.4463 57.676 43.7094 57.676 44.8961C57.676 45.9483 55.5622 46.2114 52.5208 46.2114ZM4.09832 75.8352C4.36254 77.5451 4.6297 79.521 4.6297 81.3653C4.6297 85.1827 3.8341 86.3665 3.17356 86.3665C2.3809 86.3665 1.98457 85.5773 1.98457 84.3935C1.98457 81.6284 2.64512 78.7318 4.09832 75.8352ZM1.72036 3.42274C1.72036 2.37049 2.11668 1.44685 2.90934 1.44685C3.56989 1.44685 4.23043 2.63355 4.23043 6.45088C4.23043 8.42678 3.96621 10.3997 3.702 12.2441C2.51301 9.3475 1.72036 6.31935 1.72036 3.42274Z" fill="black"/>
</svg>
