<svg width="59" height="89" viewBox="0 0 59 89" fill="none" xmlns="http://www.w3.org/2000/svg">
<path d="M59 84.9196C59 86.761 58.0752 89 56.487 89C53.7098 89 53.4455 84.9196 53.4455 81.3653C53.4455 78.8633 53.7098 76.4928 53.974 74.1223C47.3626 62.4043 31.627 51.0839 18.3808 46.0798C14.0183 47.5296 10.052 48.1873 6.61134 48.1873C1.98458 48.1873 0 46.4744 0 44.8961C0 42.7886 1.32403 41.9994 7.14271 41.9994C9.91994 41.9994 13.2256 42.7886 16.9276 43.9724C30.3059 39.2344 47.2305 27.2533 54.1061 14.4831C53.7098 11.8495 53.4455 9.3475 53.4455 6.58242C53.4455 3.02815 53.7098 0 56.487 0C58.0752 0 59 2.10743 59 3.94887C59 23.4915 35.966 39.5997 20.1012 45.2906C32.5576 50.5373 59 67.8644 59 84.9196ZM6.47923 46.2114C8.86013 46.2114 11.6374 45.6852 14.6788 44.7645C11.6374 43.9724 8.86013 43.4463 6.47923 43.4463C2.38091 43.4463 1.32403 43.7094 1.32403 44.8961C1.32403 45.9483 3.43778 46.2114 6.47923 46.2114ZM54.9017 75.8352C54.6375 77.5451 54.3703 79.521 54.3703 81.3653C54.3703 85.1827 55.1659 86.3665 55.8264 86.3665C56.6191 86.3665 57.0154 85.5773 57.0154 84.3935C57.0154 81.6284 56.3549 78.7318 54.9017 75.8352ZM57.2796 3.42274C57.2796 2.37049 56.8833 1.44685 56.0907 1.44685C55.4301 1.44685 54.7696 2.63355 54.7696 6.45088C54.7696 8.42678 55.0338 10.3997 55.298 12.2441C56.487 9.3475 57.2796 6.31935 57.2796 3.42274Z" fill="black"/>
</svg>
