<svg width="436" height="248" viewBox="0 0 436 248" fill="none" xmlns="http://www.w3.org/2000/svg">
<path d="M127.411 160.59C132.252 163.014 137.58 164.474 142.909 164.474C155.993 164.474 172.46 156.225 189.903 145.063C198.621 152.83 207.34 161.561 215.095 170.781C205.407 184.361 199.109 199.483 199.109 214.039C199.109 233.444 207.34 248 220.905 248C235.44 248 243.189 235.385 243.189 218.405C243.189 202.395 234.958 183.878 221.393 166.898C228.173 159.137 234.958 151.859 243.189 145.063C263.54 157.196 284.367 164.956 302.291 163.985C303.261 163.503 303.748 162.532 302.291 162.044C285.824 161.561 267.899 152.83 249.005 140.698C259.662 133.419 270.32 127.6 280.977 123.235C289.695 126.141 297.932 128.083 305.687 128.083C313.436 128.083 325.063 126.141 325.063 120.322C325.063 115.956 320.703 113.526 311.985 113.526C303.261 113.526 293.091 115.956 282.916 119.351C272.74 114.986 261.601 108.19 250.456 99.9469C263.052 90.7271 275.648 81.9956 287.275 73.7466C294.542 75.6883 302.291 76.1707 309.559 76.1707C329.91 76.1707 351.224 70.3517 351.224 59.1903C351.224 53.3713 347.834 50.4589 338.14 50.4589C324.581 50.4589 308.589 57.2486 291.634 67.9217C279.526 65.0092 268.381 60.1611 257.242 55.307C294.06 32.0192 331.842 11.6439 366.24 11.6439C396.761 11.6439 429.702 21.3461 429.702 45.6047C429.702 78.5948 391.432 96.546 354.614 96.546C343.469 96.546 330.391 96.0636 312.467 88.303C311.497 87.8146 310.046 88.303 311.497 89.7562C325.063 95.5752 341.536 99.4585 356.553 99.4585C399.181 99.4585 436 81.9956 436 45.6047C436 24.2586 411.777 7.27818 373.02 7.27818C334.751 7.27818 294.06 29.1127 254.816 53.8537C244.158 48.5172 233.501 42.6923 224.295 36.8733C238.83 29.5951 253.852 22.317 267.411 17.4688C251.426 16.498 232.532 6.78979 220.423 0C203.468 10.6731 184.087 15.0388 171.009 16.498C184.087 18.9221 198.621 28.1419 215.095 38.815C205.407 43.1807 195.232 48.0288 185.544 52.4005C146.786 25.2294 104.158 0 58.6206 0C31.9716 0 0 12.6147 0 42.6923C0 78.1124 47.9574 96.0636 85.2636 96.0636C98.3413 96.0636 114.327 92.1803 124.015 86.3613C124.984 84.4197 124.015 83.4489 122.564 84.4197C113.358 90.2387 99.3107 93.1511 87.2024 93.1511C52.8043 93.1511 6.29798 74.2291 6.29798 42.6923C6.29798 12.6147 37.3002 4.36572 58.6206 4.36572C98.829 4.36572 139.519 28.6243 177.307 55.7954C167.619 59.6727 158.413 63.556 148.238 65.4976C131.77 54.8246 115.784 47.5464 102.701 47.5464C95.9208 47.5464 85.2636 50.4588 85.2636 56.2778C85.2636 67.4393 106.578 70.3517 121.113 70.3517C127.892 70.3517 134.19 69.8633 140.976 68.8925C153.084 77.624 166.65 88.7854 181.184 99.9469C171.009 105.766 161.803 111.102 152.603 114.497C142.909 111.102 133.221 108.678 124.503 108.678C117.235 108.678 108.999 111.591 108.999 116.927C108.999 121.775 118.205 123.717 125.472 123.717C132.739 123.717 141.458 121.293 150.176 118.381C161.803 124.205 174.886 132.449 186.995 143.122C170.04 153.801 155.023 161.073 141.945 161.073C137.58 161.073 132.739 161.073 128.862 159.62C127.411 158.649 126.441 159.62 127.411 160.59ZM217.515 40.2682C227.203 46.5756 237.379 52.4005 247.554 58.2195C237.86 64.5268 228.66 70.8342 218.966 77.1415C208.797 69.3809 198.621 61.6144 188.452 54.3362C198.621 49.9705 207.827 45.1223 217.515 40.2682ZM250.456 59.6727C260.632 65.0092 271.771 69.3809 283.403 72.7758C271.771 80.5364 259.662 89.2679 247.554 98.4877C239.317 92.1803 230.111 85.873 220.905 78.5948C230.593 72.7758 240.287 65.9801 250.456 59.6727ZM311.016 116.439C319.246 116.439 321.185 118.863 321.185 120.322C321.185 123.717 313.918 125.659 307.138 125.659C300.84 125.659 294.542 124.205 286.793 121.293C295.512 117.898 303.261 116.439 311.016 116.439ZM216.546 173.205C229.63 189.703 238.83 207.732 238.83 222.288C238.83 235.874 232.05 246.547 222.362 246.547C211.217 246.547 201.529 234.903 201.529 215.01C201.529 200.454 207.34 186.302 216.546 173.205ZM146.305 116.927C138.55 119.351 131.282 120.805 124.503 120.805C119.656 120.805 113.845 119.834 113.845 116.927C113.845 114.497 120.143 112.073 125.954 112.073C131.77 112.073 138.55 113.526 146.305 116.927ZM150.176 66.9509C160.352 65.0092 170.04 61.1319 180.215 57.2486C190.872 65.0092 202.011 73.7466 212.187 81.5072C204.438 86.3614 196.683 91.2095 189.415 95.5752C176.338 85.3905 163.26 75.1999 150.176 66.9509ZM215.095 82.9665C224.783 90.2387 233.501 97.0344 242.226 102.853C234.47 108.678 227.203 114.497 219.936 120.322C210.248 112.556 201.042 104.795 191.354 97.5168C199.109 92.6687 207.34 88.303 215.095 82.9665ZM183.605 102.371C193.293 109.649 202.981 117.41 213.156 125.17C206.858 130.024 200.078 134.879 193.78 138.756C181.666 129.542 169.07 121.293 156.474 115.956C164.711 112.556 174.399 107.707 183.605 102.371ZM216.064 126.63C224.295 132.937 232.532 138.756 240.768 143.61C233.019 150.4 225.264 157.196 219.454 164.956C212.187 156.225 204.919 147.976 196.201 140.698C202.499 136.332 209.279 131.966 216.064 126.63ZM222.362 121.775C229.63 116.439 237.379 110.132 244.646 104.313C255.785 112.073 266.93 117.41 277.105 121.293C266.93 126.141 256.273 132.449 246.585 139.244C238.83 134.39 230.593 128.083 222.362 121.775ZM138.55 67.4393C132.739 68.4101 126.441 68.8925 120.143 68.8925C106.096 68.8925 88.1718 65.0092 88.1718 56.2778C88.1718 52.4005 96.4025 50.9413 102.701 50.9413C111.907 50.9413 124.015 57.2486 138.55 67.4393ZM188.452 15.5272C198.621 13.0971 208.797 9.21982 217.034 4.8541C228.66 11.1615 242.226 16.498 253.364 21.3461C242.226 25.2294 232.05 30.0776 221.393 34.9317C209.766 27.6535 198.621 20.8637 188.452 15.5272ZM337.171 53.3713C343.469 53.3713 348.804 55.7954 348.804 60.1611C348.804 68.4101 327.483 70.8342 319.734 70.8342C311.497 70.8342 303.261 69.8633 295.512 68.8925C311.016 59.6727 325.063 53.3713 337.171 53.3713Z" fill="black"/>
</svg>
