<svg width="1213" height="194" viewBox="0 0 1213 194" fill="none" xmlns="http://www.w3.org/2000/svg">
<path d="M657.682 54.9219C650.628 59.0466 644.429 60.9524 639.156 60.9524C632.995 60.9524 629.916 58.1968 629.916 52.6873C629.916 48.7199 633.766 41.5587 641.467 31.2003C630.466 41.1187 623.094 47.3985 619.353 50.0429C609.451 57.3154 601.2 60.9524 594.598 60.9524C588.215 60.9524 585.024 58.4176 585.024 53.3496C585.024 52.0886 585.124 50.8307 585.324 49.5712C583.82 50.5289 582.296 51.4565 580.755 52.357C569.085 59.1736 558.311 62.6042 548.407 62.6042C523.814 62.6042 527.677 45.3815 538.298 30.6381C534.157 33.886 528.036 40.5787 517.38 48.6104C505.541 57.5362 495.596 61.9435 487.675 61.9435C481.293 61.9435 478.101 59.3547 478.101 54.2311C478.101 49.1059 482.944 40.7328 492.626 29.1626C498.776 21.7774 502.972 16.5267 505.216 13.3821C508.746 8.43317 506.684 7.39447 501.462 8.97316C494.066 11.2141 481.546 19.9462 463.909 35.1677C443.224 53.0177 430.682 61.9435 426.281 61.9435C422.76 61.9435 420.998 61.2828 420.998 59.9058C420.998 55.3873 426.555 46.1867 437.667 32.3025C444.895 23.2735 449.772 17.0159 452.3 13.5631C456.202 8.23147 453.28 7.32459 448.107 9.12722C441.02 11.5953 428.572 20.2765 410.767 35.1677C389.423 53.0177 376.99 61.9435 373.47 61.9435C369.727 61.9435 367.857 61.2828 367.857 59.9058C367.857 56.7659 373.138 48.0592 383.701 33.7907C391.125 23.7611 395.996 17.216 398.308 14.1349C400.743 10.8933 399.507 9.29716 395.838 10.3851C393.373 11.1141 390.091 13.0279 385.994 16.117C367.263 30.2458 353.854 48.1879 330.863 58.6813C323.651 61.9721 306.977 66.0315 306.977 53.2813C306.977 48.6818 309.339 42.2035 313.807 36.4859C304.608 45.1544 283.856 62.2087 269.269 62.2087C260.105 62.2087 256.998 55.886 260.641 48.0799C257.837 49.2314 255.251 50.567 252.177 52.357C240.499 59.1577 229.733 62.6042 219.829 62.6042C207.728 62.6042 201.675 58.5288 201.675 50.3733C201.675 44.9225 203.892 39.0096 208.324 32.6329C199.498 39.918 183.021 52.1473 171.424 59.8359C164.565 64.383 158.034 68.471 151.834 72.0811C113.766 129.27 76.02 167.443 38.6197 186.569C29.5932 191.185 22.005 193.51 15.844 193.51C5.28082 193.51 0 189.655 0 181.941C0 171.859 9.6704 158.971 28.7162 143.044C60.1728 116.739 98.6815 95.4597 134.011 74.4507C139.291 67.3974 146.223 57.371 154.804 44.4238V44.0935C140.942 55.994 128.95 61.9435 118.828 61.9435C110.464 61.9435 106.284 58.2524 106.284 50.9244C106.284 36.038 124.615 19.3204 136.486 12.9644C149.136 6.18901 159.646 2.77117 168.008 2.77117C175.93 2.77117 179.451 6.62895 178.569 14.3413C182.459 10.2549 188.474 2.77117 194.743 2.77117C198.705 2.77117 200.685 3.54304 200.685 5.0852C200.685 5.74749 199 8.13617 195.569 12.2481C181.078 29.6121 167.58 49.6649 154.284 67.5658L169.988 57.3154C185.512 47.1826 199.688 34.6023 213.973 23.9263C219.228 20.0002 223.564 16.2599 229.348 13.1295C242.182 6.18107 252.781 2.77117 260.979 2.77117C270 2.77117 273.196 10.0325 268.954 16.9937C263.943 25.2175 247.897 33.6652 220.821 42.3305C217.735 47.9004 215.912 57.3154 226.431 57.3154C233.254 57.3154 241.31 54.7107 250.526 49.3822C254.943 46.83 265.146 41.6476 270.478 41.7127C277.401 41.7969 278.234 44.211 276.31 49.8269C274.493 55.1395 276.881 55.4572 283.474 53.6037C289.387 51.9377 297.941 46.0422 309.134 35.9173C307.407 36.3493 305.894 36.5653 304.598 36.5653C296.487 36.5653 289.313 32.644 290.662 20.6609C292.129 7.59618 303.982 1.70706 315.503 0.291956C323.706 -0.716564 334.932 0.687423 339.277 7.67559C343.166 4.64685 349.387 1.50853 356.086 1.50853C359.41 1.50853 360.221 2.28358 358.301 4.43244C352.043 11.4349 325.663 45.1433 325.663 51.1722C325.663 53.1193 326.637 54.0945 328.583 54.0945C340.678 54.0945 371.608 23.8977 383.04 14.1222C391.843 6.57336 399.545 2.77117 406.146 2.77117C411.647 2.77117 414.398 5.30597 414.398 10.4296C414.398 13.3217 410.324 20.4179 402.183 31.7673C399.618 35.3408 395.727 40.4803 392.354 44.9019C409.657 32.1913 424.479 17.1588 444.068 7.23406C450.029 4.21645 454.732 2.77117 458.297 2.77117C465.34 2.77117 468.86 5.30597 468.86 10.4296C468.86 14.2318 465.89 19.8509 459.948 27.4553C454.988 33.1316 449.198 40.6851 444.534 46.1661C449.883 41.6095 457.477 35.3567 462.232 31.5545C486.221 12.3672 502.624 2.77117 511.44 2.77117C518.261 2.77117 521.672 5.19638 521.672 10.0992C521.672 13.8458 517.38 21.1183 508.798 31.861C502.091 40.3008 498.005 46.2836 496.54 49.8889C494.708 54.3962 497.42 54.6011 501.253 53.6466C504.94 52.727 509.71 50.0382 515.598 45.6325C525.433 38.2695 533.911 29.1658 543.022 22.5318C547.365 19.3696 552.3 16.1742 557.925 13.1295C570.763 6.17949 581.361 2.77117 589.556 2.77117C595.993 2.77117 599.24 5.63632 599.24 11.4206C599.24 21.393 582.625 31.6958 549.398 42.3305C546.189 48.0783 544.492 57.3154 555.009 57.3154C561.831 57.3154 569.864 54.671 579.104 49.3822C585.525 45.6134 589.791 40.7868 597.568 40.7868C603.382 40.7868 603.794 42.9404 602.519 47.5637C601.396 51.6359 601.298 55.4111 606.698 53.5672C611.823 51.8138 621.63 44.9543 635.856 32.6885C646.285 23.6975 656.651 14.5065 667.213 5.41714C668.973 4.09415 672.495 3.43345 677.776 3.43345C679.536 3.43345 680.417 3.87339 680.417 4.75485C680.417 5.19638 674.806 12.1385 663.583 25.5812C654.989 35.876 649.685 43.2628 647.672 47.7416C645.947 51.5867 646.967 55.1189 651.67 53.4973C664.117 49.2028 696.434 19.6651 710.13 9.37498C715.852 4.96926 720.583 2.76481 724.32 2.76481C727.622 2.76481 729.603 3.09358 730.262 3.75586C723.881 11.743 717.611 19.7318 711.45 27.7189C704.242 36.9052 699.656 43.5805 697.696 47.7416C695.282 52.87 698.679 56.0591 703.464 54.1183C708.505 52.0727 716.44 47.929 720.584 38.8317C721.374 37.0958 720.511 37.0211 719.284 35.8427C716.504 33.1792 715.452 28.1334 717.866 25.1317C721.612 20.4751 730.262 23.8548 730.262 32.8425C730.262 33.8447 730.09 34.8691 729.761 35.9062C740.396 33.5255 754.082 22.2602 763.701 14.1206C772.564 6.62101 775.825 5.02961 783.069 4.75485C787.248 4.59603 789.341 5.30596 789.341 6.40819C789.341 7.28965 784.17 14.4525 773.828 27.8952C775.589 28.9974 776.469 30.43 776.469 32.1929C776.469 33.2936 775.972 34.4514 774.983 35.6632C772.369 38.8587 773.381 41.1187 777.788 41.1187C786.371 41.1187 794.401 38.0328 801.883 31.861C802.324 31.6418 808.044 25.8019 819.048 14.3413C825.209 7.95035 830.711 4.75485 835.551 4.75485C840.173 4.75485 842.482 5.41714 842.482 6.73854C842.482 7.18006 837.477 13.6251 827.464 26.0767C819.434 36.0634 814.622 43.1088 813.035 47.2127C811.279 51.7423 813.398 56.0448 818.722 53.4322C833.831 46.0263 842.677 30.7778 856.022 21.3851C860.094 18.5168 864.574 15.6707 869.549 13.0199C881.291 6.75919 891.538 3.41757 900.211 2.8474C902.251 2.71558 905.547 3.67169 901.833 5.60137C890.685 11.373 882.938 18.2611 874.17 27.2345C862.947 38.6935 857.337 47.8401 857.337 54.671C857.337 57.7569 858.877 59.2991 861.958 59.2991C870.54 59.2991 880.772 52.5221 892.655 38.9143C895.027 29.2738 899.729 20.3083 909.158 16.1599C910.089 13.9046 910.659 8.31564 909.653 5.96666C908.197 2.56787 910.868 1.97864 913.228 3.34293C918.888 6.61942 919.102 16.1519 916.842 21.7917C914.271 28.2033 908.519 35.6171 899.586 44.0935C905.459 46.0565 916.452 39.1128 920.68 35.6362C930.972 27.1742 939.595 19.8922 951.297 13.4599C964.225 6.35419 974.293 2.77117 981.499 2.77117C994.211 2.77117 995.854 13.0358 989.532 21.779C987.221 24.9745 984.525 26.5722 981.444 26.5722C978.364 26.5722 976.823 25.0301 976.823 21.9442C976.823 20.6228 977.703 18.4183 979.463 15.334C982.368 10.2437 984.397 3.8448 975.822 6.63054C970.557 8.34264 963.927 14.0237 955.698 23.8738C945.802 35.722 940.845 44.7542 940.845 50.98C940.845 55.2221 943.376 57.3154 948.436 57.3154C957.46 57.3154 968.516 52.5777 981.61 43.1008C994.333 33.8923 1003.09 24.3995 1015.11 14.1222C1023.91 6.57336 1031.62 2.77117 1038.22 2.77117C1043.72 2.77117 1046.47 5.30597 1046.47 10.4296C1046.47 14.2318 1037.63 27.7062 1023.54 46.1629C1033.7 38.6252 1056.15 18.3897 1074.05 8.44588C1080.27 4.98514 1085.95 2.77117 1090.37 2.77117C1097.41 2.77117 1100.93 5.30597 1100.93 10.4296C1100.93 14.2318 1098.13 19.9906 1092.02 27.4553C1087.57 32.887 1081.26 39.999 1076.64 45.5626C1094.01 33.3952 1109.17 16.333 1130.74 6.18266C1135.57 3.90992 1140.48 2.77117 1143.51 2.77117C1150.33 2.77117 1153.74 5.19638 1153.74 10.0992C1153.74 13.8458 1149.45 21.1183 1140.87 31.861C1134.43 39.9673 1130.4 45.8071 1128.8 49.4505C1126.77 54.0611 1128.88 54.7091 1133.19 53.68C1135.24 53.186 1137.64 52.1378 1140.38 50.5432C1147.19 46.5822 1154.33 40.5231 1160.5 35.3567C1170.44 27.036 1179.63 19.1441 1192.53 9.37498C1198.29 5.01691 1202.98 2.76481 1206.72 2.76481C1210.02 2.76481 1212 3.09358 1212.66 3.75586C1206.28 11.743 1200.01 19.7318 1193.85 27.7189C1186.64 36.9052 1182.06 43.5805 1180.1 47.7416C1177.68 52.87 1181.08 56.0607 1185.86 54.1183C1190.91 52.0727 1199.74 47.1238 1203.89 38.0249C1206.29 32.7425 1196.67 29.6025 1200.27 25.1317C1204.01 20.4735 1212.66 23.8548 1212.66 32.8425C1212.66 45.5927 1184.46 61.9292 1172.07 61.9292C1164.59 61.9292 1160.85 59.2848 1160.85 53.9404C1160.85 46.1137 1171.24 32.3263 1176.32 25.7718C1171.25 29.8773 1167.2 33.662 1162.77 37.6326C1156.2 43.5169 1149.74 48.8279 1142.36 53.5338C1133.57 59.1307 1126.03 61.9435 1119.75 61.9435C1113.36 61.9435 1110.17 59.3547 1110.17 54.2311C1110.17 49.1059 1115.02 40.7328 1124.7 29.1626C1131.92 20.4941 1136.44 14.767 1138.28 11.9336C1140.54 8.4554 1138.22 8.12029 1135.14 8.70476C1127.68 10.1214 1114.82 18.8694 1095.98 35.1677C1075.32 53.0415 1062.75 61.9435 1058.35 61.9435C1054.83 61.9435 1053.07 61.2828 1053.07 59.9058C1053.07 55.3873 1058.63 46.1867 1069.74 32.3025C1077.3 22.859 1082.29 16.4489 1084.7 13.1073C1088.8 7.44212 1083.74 7.74865 1079.51 9.37022C1072.33 12.1321 1060.1 20.7308 1042.84 35.1677C1021.49 53.0177 1009.06 61.9435 1005.54 61.9435C1001.8 61.9435 999.928 61.2828 999.928 59.9058C999.928 56.7659 1005.21 48.0592 1015.77 33.7907C1023.55 23.2862 1028.52 16.6046 1030.69 13.7204C1033.09 10.5407 1030.85 9.47345 1027.78 10.4216C1025.16 11.2316 1021.64 13.3471 1017.22 16.7634C1004.35 26.7104 994.157 38.6236 980.454 48.0592C966.37 57.7569 953.387 62.6042 941.505 62.6042C929.842 62.6042 924.011 58.6384 924.011 50.7036C924.011 43.8727 927.202 36.4907 933.583 28.5559C928.082 33.94 922.79 37.9407 920.381 39.4654C915.238 42.7181 903.448 50.3098 896.944 46.4075C881.541 57.2058 868.999 62.6042 859.316 62.6042C848.535 62.6042 843.143 58.5288 843.143 50.3733C843.143 44.292 845.127 36.7813 849.312 31.0415C838.183 42.8515 823.955 61.9435 805.845 61.9435C798.363 61.9435 794.622 58.7496 794.622 52.357C794.622 47.5081 796.823 42.1098 801.224 36.1603C794.401 41.0076 787.141 43.4328 779.439 43.4328C773.717 43.4328 769.647 41.5587 767.225 37.8121C764.267 42.4671 759.483 48.9518 752.873 57.2646C750.634 60.0789 744.259 60.9524 740.821 60.9524C735.979 60.9524 733.558 60.071 733.558 58.308C733.558 55.2221 738.591 47.6844 748.412 35.498C755.347 26.893 753.68 28.0223 762.103 19.1441C748.358 30.4046 735.364 39.5416 727.716 40.0514C720.505 51.0054 699.803 61.9292 689.668 61.9292C682.188 61.9292 678.447 59.2848 678.447 53.9404C678.447 46.1137 688.844 32.3263 693.917 25.7718C681.731 35.6489 671.144 47.0491 657.682 54.9219ZM329.434 11.4635C329.702 8.44588 328.226 6.37801 324.992 6.16837C315.978 5.59184 304.698 14.1047 301.306 23.7023C299.105 29.9377 300.109 34.7484 307.493 32.825C317.531 30.214 328.835 18.2134 329.434 11.4635ZM175.599 12.0829C175.599 8.05994 173.618 6.07784 169.659 6.07784C163.937 6.07784 154.363 12.5244 140.942 25.3604C127.52 38.1964 120.807 47.3985 120.807 52.9637C120.807 55.6621 122.347 56.985 125.428 56.985C131.81 56.985 141.767 50.98 155.3 38.9143C168.832 26.8486 175.599 17.9228 175.599 12.0829ZM131.423 79.5584C103.341 96.8764 11.5528 148.39 11.5528 181.281C11.5528 186.789 14.634 189.544 20.795 189.544C42.1403 189.544 79.2709 152.505 131.423 79.5584ZM250.725 7.9567C246.957 9.77363 242.375 13.6378 236.993 19.5761C231 26.1879 227.181 31.7117 222.538 39.2287C244.557 32.0611 256.784 23.2179 258.806 12.8881C260.127 6.14296 256.053 5.38696 250.725 7.9567ZM587.687 9.76886C587.687 7.72959 586.366 6.73854 583.727 6.73854C579.325 6.73854 573.273 11.0363 565.572 19.5761C559.219 26.5262 555.32 31.7165 551.079 39.2478C575.284 31.3686 587.687 21.4486 587.687 9.76886Z" fill="white"/>
</svg>
