<svg width="506" height="61" viewBox="0 0 506 61" fill="none" xmlns="http://www.w3.org/2000/svg">
<path d="M345.845 51.0764C337.625 56.5984 330.534 59.3603 324.572 59.3603C318.471 59.3603 315.421 56.6276 315.421 51.1615C315.421 47.2257 319.234 40.1198 326.86 29.844C315.965 39.6825 308.666 45.9137 304.962 48.5376C295.157 55.753 286.986 59.3603 280.449 59.3603C274.13 59.3603 270.971 56.8459 270.971 51.8171C270.971 50.487 271.132 49.2168 271.445 48.0302C260.459 56.232 251.485 60.3436 244.548 60.3436C237.793 60.3436 234.416 57.7205 234.416 52.4183C234.416 41.5988 246.944 29.4611 254.495 21.6429C252.118 23.6365 247.049 27.5195 244.801 29.3515C219.448 50.0127 202.368 60.3436 193.561 60.3436C186.372 60.3436 182.776 57.7205 182.776 52.4183C182.776 43.8366 192.581 30.0623 212.191 11.1504C209.33 12.8162 207.276 14.3464 204.631 16.3502C191.719 26.1335 180.192 37.2335 167.414 47.1161C155.649 55.9169 145.844 60.3436 138 60.3436C131.462 60.3436 128.194 58.1027 128.194 53.6759C128.194 47.9364 133.042 39.3003 142.739 27.8221C149.331 19.9803 153.682 14.5639 155.792 11.5397C160.191 5.236 152.76 7.19014 149.238 8.66836C130.693 16.4455 107.853 39.993 90.252 52.9202C83.5144 57.8694 79.1656 60.3436 77.2079 60.3436C73.5038 60.3436 71.6513 59.688 71.6513 58.3217C71.6513 55.2061 76.8804 46.5149 87.3395 32.2489C93.0005 24.5276 97.1608 18.8725 99.8213 15.273C107.592 4.76165 98.506 8.35711 92.3243 12.6444C78.257 22.3986 68.8063 29.9433 53.6757 39.6825C52.1507 40.9945 48.8816 43.8366 43.8708 48.2098C32.5401 56.299 22.8436 60.3436 14.782 60.3436C1.81642 60.3436 -3.89328 48.8158 2.85455 40.2223C5.68702 36.6142 9.91413 35.1076 13.1652 35.1076C22.8318 35.1076 21.2 42.1677 15.4581 47.9293C12.3587 51.0394 14.2967 53.1291 18.377 53.1291C25.3494 53.1291 34.7193 45.5859 46.485 30.5004C40.1659 32.6862 34.7193 33.7799 30.1435 33.7799C18.7351 33.7799 21.3704 24.1967 26.6537 23.159C29.71 22.5585 29.4894 23.7649 29.4894 25.9089C29.4894 30.6383 44.6129 28.9717 48.1191 28.5321C54.0024 21.0984 56.944 15.195 56.944 10.8226C56.944 6.88757 54.329 4.91924 49.0999 4.91924C43.8708 4.91924 36.9267 8.02223 28.1819 14.1021C20.7053 19.3011 23.9524 12.0251 25.6957 10.9038C33.6725 5.77339 46.6601 0 55.9632 0C65.1147 0 69.6905 4.15413 69.6905 12.4624C69.6905 19.2404 67.2193 24.9437 60.4644 31.7217C69.7863 25.3739 80.3419 17.5298 90.5873 10.4476C99.0816 4.57648 105.408 1.63975 109.564 1.63975C115.012 1.63975 117.736 4.15413 117.736 9.23727C117.736 13.0092 111.286 23.9958 97.3414 42.3064C112.84 29.4469 124.548 18.748 141.704 8.79286C150.097 3.92326 156.943 1.63975 161.532 1.63975C168.286 1.63975 171.663 4.0446 171.663 8.90947C171.663 12.8453 167.414 20.1151 158.917 30.6643C152.431 38.7566 148.421 44.5568 146.885 48.1381C145.765 50.7494 145.499 52.4727 148.785 52.4727C152.46 52.4727 157.927 49.807 165.187 44.4749C178.366 34.7964 189.309 22.5223 202.386 13.5009C213.716 5.57561 222.65 1.63975 229.187 1.63975C231.415 1.63975 233.661 1.94705 231.811 4.45986C229.452 7.66213 223.921 15.0296 215.133 26.5645C207.792 36.1989 203.164 43.0424 201.333 47.2052C199.292 51.8494 202.056 53.9438 206.536 52.0109C214.787 48.4509 235.568 32.9289 268.734 5.30219C271.617 2.90127 274.726 1.63975 278.212 1.63975C282.788 1.63975 285.076 2.18659 285.076 3.27949C285.076 4.42755 279.575 11.5878 268.571 24.8704C259.545 35.8097 254.22 43.3662 252.599 47.5393C250.998 51.6579 252.828 53.3773 256.963 52.5641C260.492 51.8699 264.851 49.651 270.037 45.909C274.802 42.4719 276.933 39.3547 283.39 39.3547C289.147 39.3547 289.555 41.4917 288.293 46.0776C287.094 50.4382 287.244 53.9635 292.754 51.9188C297.908 50.0048 307.509 43.237 321.304 31.3199C331.629 22.3994 341.894 13.2827 352.353 4.26366C354.096 2.9517 357.582 2.29612 362.812 2.29612C364.555 2.29612 365.427 2.73265 365.427 3.60729C365.427 4.0446 359.87 10.9322 348.758 24.2684C339.705 35.1336 334.34 42.7335 332.662 47.0688C331.229 50.7723 332.93 53.3765 337.012 51.9471C338.929 51.2758 341.295 49.9615 344.11 48.0049C356.433 39.439 366.904 28.0727 379.67 19.2956C391.49 11.1678 407.951 2.59633 422.434 1.70436C427.318 1.40336 425.81 3.48436 422.296 5.24703C415.106 8.74558 406.499 15.6324 396.476 25.9089C385.364 37.2776 379.807 46.351 379.807 53.1291C379.807 56.1895 381.332 57.7205 384.383 57.7205C392.88 57.7205 403.013 50.9968 414.779 37.4967C417.612 25.9633 423.058 18.4745 431.121 14.9224C432.043 12.6846 432.606 7.13893 431.611 4.80971C430.473 2.14641 431.794 0.874637 434.506 1.8982C437.92 3.1873 440.272 9.91097 440.272 13.2827C440.272 21.0984 434.062 30.8282 421.643 42.6342C424.237 43.5018 428.024 42.4829 430.443 41.5019C440.769 37.3155 453.963 22.4923 463.245 15.6268C475.851 6.30211 485.515 1.63975 492.239 1.63975C498.994 1.63975 502.371 4.0446 502.371 8.85511C502.371 12.5719 498.122 19.6777 489.624 30.1718C483.045 38.2973 479.013 44.1944 477.527 47.8639C475.672 52.4467 478.403 53.2157 482.449 52.0456C486.496 50.8747 492.523 47.4896 500.083 41.3222C503.501 38.5337 509.598 37.8458 502.326 43.527C496.121 48.3745 490.514 52.2607 485.539 55.2061C479.754 58.6306 474.154 60.3436 468.707 60.3436C462.17 60.3436 458.902 58.0483 458.902 53.4025C458.902 48.1547 463.75 39.5738 473.446 27.6574C480.157 19.4477 484.546 14.0139 486.612 11.3742C489.901 7.16966 486.292 6.59602 482.663 7.80475C478.672 9.13404 472.767 12.709 464.949 18.5297C452.533 27.7733 446.503 37.1232 431.911 43.8461C428.391 45.4677 422.643 47.1067 419.028 44.9303C403.775 55.6434 391.355 61 381.768 61C371.091 61 365.753 56.9554 365.753 48.8654C365.753 40.7762 368.804 33.233 374.905 26.2367C364.678 34.2479 357.805 43.0416 345.845 51.0764Z" fill="white"/>
</svg>
