<svg width="786" height="433" viewBox="0 0 786 433" fill="none" xmlns="http://www.w3.org/2000/svg">
<path d="M386.544 241.119C391.054 240.772 391.935 242.236 387.069 244.666C379.743 248.214 370.974 255.199 360.763 265.621C349.44 277.151 343.78 286.354 343.78 293.228C343.78 296.333 345.334 297.885 348.442 297.885C357.1 297.885 367.423 291.066 379.41 277.373C382.296 265.676 387.846 258.081 396.06 254.479C397 252.209 397.573 246.586 396.56 244.222C395.235 241.139 397.252 240.204 399.811 241.396C404.697 243.673 406.029 252.501 404.772 257.275C402.908 264.355 396.784 272.761 386.403 282.584C392.329 284.56 401.465 278.449 405.717 274.935C422.715 261.042 437.12 247.423 453.429 232.563C458.023 228.378 462.992 223.881 468.32 219.054C473.209 214.626 477.534 212.402 481.308 212.402C484.573 212.402 487.49 212.553 484.761 216.084C483.878 217.226 482.633 218.785 480.974 220.717C468.781 234.924 448.341 260.854 419.702 298.551C393.507 332.699 371.862 362.303 354.768 387.359C344.611 402.103 338.084 412.2 335.189 417.649C332.543 422.629 332.506 426.015 337.882 420.24C339.854 418.121 342.752 415.065 345.876 410.563C373.79 370.351 405.705 324.611 437.685 288.35C464.99 256.807 485.969 241.007 500.621 241.007C507.503 241.007 510.944 243.28 510.944 247.77C510.944 252.261 506.337 259.579 497.124 269.835C487.912 280.035 483.305 286.743 483.305 289.847C483.305 291.898 484.415 292.896 486.635 292.896C490.485 292.896 496.265 290.072 503.976 284.424C519.9 272.76 527.948 261.726 546.519 251.429C558.043 245.28 567.732 241.837 575.546 241.14C584.689 240.323 591.929 245.448 586.803 254.756C582.146 263.209 565.851 271.895 537.917 280.811C536.585 285.301 535.919 288.295 535.919 289.847C535.919 293.894 538.472 295.889 543.578 295.889C550.46 295.889 558.563 293.228 567.886 287.906C587.294 276.543 603.071 260.079 618.835 244.333C611.031 239.88 621.436 228.035 631.489 228.035C641.03 228.035 635.921 232.412 632.488 235.353C630.268 237.349 629.158 239.122 629.158 240.675C629.158 242.227 632.932 243.28 640.48 243.835C645.472 244.201 654.865 246.022 650.749 252.904C648.892 256.007 644.581 261.3 637.816 268.781C631.423 275.851 627.221 281.436 625.212 285.535C622.222 291.633 624.251 293.73 630.308 291.462C633.416 290.298 637.561 287.824 642.743 284.04C658.341 272.651 672.957 259.758 689.097 247.659C694.869 243.225 699.643 241.007 703.416 241.007C706.746 241.007 708.744 241.34 709.41 242.005C702.973 250.043 696.645 258.081 690.43 266.12C683.04 275.51 678.383 282.293 676.46 286.466C674.254 291.252 677.04 293.763 681.619 292.035C684.315 291.019 687.806 288.534 692.094 284.58C693.648 277.706 697.311 273.493 703.084 271.941C704.348 269.526 701.589 263.401 705.716 264.486C708.178 265.135 709.41 267.398 709.41 271.276C709.41 274.602 706.968 278.704 702.084 283.583C703.423 282.714 704.483 281.867 705.955 280.619C718.924 269.628 728.78 260.044 744.32 251.429C757.306 244.499 767.962 241.007 776.231 241.007C782.725 241.007 786 243.89 786 249.711C786 259.745 769.238 270.111 735.717 280.811C732.975 286.324 730.766 295.889 741.378 295.889C748.26 295.889 756.363 293.228 765.687 287.906C769.465 285.694 773.434 283.062 777.594 280.01C782.717 276.252 782.329 280.803 779.452 282.945C775.575 285.83 771.531 288.466 767.351 290.9C755.576 297.757 744.708 301.211 734.718 301.211C722.509 301.211 716.403 297.109 716.403 288.904C716.403 281.702 720.569 273.887 725.073 268.464C720.302 272.38 713.338 278.24 708.128 282.675C702.771 287.236 696.522 292.066 691.428 292.176C681.216 297.774 673.558 300.547 668.452 300.547C660.904 300.547 657.13 297.885 657.13 292.507C657.13 284.11 668.257 270.194 673.342 263.427C663.474 271.76 656.649 278.309 644.809 287.13C632.824 296.059 622.942 300.547 615.172 300.547C608.29 300.547 604.849 297.885 604.849 292.618C604.849 286.022 611.121 277.151 623.664 266.009C633.219 257.52 639.135 252.217 641.411 250.074C645.214 246.494 635.525 246.662 633.875 246.662C628.656 246.662 626.407 246.944 621.277 245.664C608.651 259.389 584.879 282.056 569.551 290.9C557.785 297.774 546.908 301.211 536.918 301.211C524.708 301.211 518.603 297.109 518.603 288.904C518.603 283.09 522.01 276.203 527.035 269.343C522.726 272.78 515.912 279.599 505.949 287.13C494.168 296.036 484.193 300.547 475.98 300.547C468.654 300.547 464.99 297.94 464.99 292.785C464.99 286.964 470.041 278.537 480.141 267.561C486.26 260.878 490.526 255.945 492.938 252.736C497.272 246.973 494.674 245.796 488.67 247.667C478.529 250.828 462.518 265.142 440.639 290.585C407.677 328.918 377.484 371.143 349.108 412.916C343.114 421.175 338.563 426.553 335.455 429.103C325.277 437.451 317.012 431.396 320.747 419.069C322.263 414.064 325.553 407.698 330.793 400.055C368.548 344.979 407.766 291.169 450.394 239.735C439.81 249.609 419.315 268.724 407.382 277.928C402.524 281.675 390.3 288.839 383.739 284.913C368.199 295.778 355.546 301.211 345.777 301.211C334.9 301.211 329.461 297.109 329.461 288.904C329.461 263.121 363.855 242.861 386.544 241.119ZM254.556 267.383C248.979 283.562 250.899 298.893 271.461 294.074C294.993 288.56 323.499 262.078 333.427 239.654C336.53 232.645 337.901 226.007 337.483 219.741C336.631 206.968 324.823 208.542 316.543 212.935C304.463 219.346 292.735 232.556 287.627 245.305C286.711 247.592 285.499 246.408 286.298 243.811C290.119 231.391 304.716 216.266 316.044 210.446C326.794 204.924 342.517 203.324 343.798 219.41C344.361 226.483 342.247 233.963 337.815 241.819C325.595 263.486 296.095 291.49 272.147 297.154C247.523 302.977 231.252 292.811 235.707 264.687C246.191 198.498 367.009 112.944 370.714 50.3963C371.769 32.5588 359.24 29.4831 344.571 33.801C314.771 42.5732 275.488 74.5015 254.057 95.9079C248.74 106.752 241.98 118.041 233.782 129.771C208.331 166.187 181.225 202.786 152.927 237.067C136.719 256.702 114.647 282.537 93.6011 296.197C84.4208 302.156 74.4713 305.92 70.7007 301.915C68.3662 299.434 67.7755 293.854 73.0806 284.315C83.0628 266.363 100.655 247.757 114.461 232.357C148.318 194.593 186.302 161.171 219.823 123.131C236.663 104.021 252.024 69.9004 249.071 44.4485C244.62 6.08105 202.959 -0.208474 171.297 4.27651C135.537 9.34208 90.3068 30.021 63.2757 54.0761C31.4991 82.3539 0.59977 119.508 5.44317 164.962C11.1009 218.059 67.0613 213.281 102.828 194.51C131.945 179.229 171.955 134.74 167.973 100.556C166.127 84.7085 154.02 77.8161 138.724 79.9718C122.457 82.2639 106.7 90.4936 95.8483 102.88C91.3442 108.021 91.7842 104.504 94.1863 101.551C104.494 88.8829 121.75 79.0115 138.059 76.9838C155.865 74.7706 172.719 81.4612 174.953 100.888C179.129 137.198 138.116 179.984 106.484 196.834C68.3196 217.164 6.65815 221.762 0.456976 165.294C-4.37697 121.28 30.0511 79.632 60.6163 52.0839C88.6061 26.8575 133.206 6.58636 170.299 1.28886C209.16 -4.26008 256.464 7.99256 263.696 52.4161C265.421 63.0123 263.142 75.2131 257.38 88.936C277.964 68.3857 315.714 39.3994 344.311 31.027C361.6 25.9657 382.138 30.0798 381.688 51.7526C380.5 109.013 279.208 195.859 254.556 267.383ZM210.517 137.075C178.843 168.703 148.182 200.838 118.117 234.017C104.529 249.013 86.9579 268.898 77.5673 286.804C68.1002 304.857 80.0967 303.53 91.3607 293.278C110.672 275.703 126.792 251.443 142.712 230.698C166.101 200.221 188.637 168.639 210.517 137.075ZM567.858 246.284C564.098 248.146 559.577 252.048 554.234 257.916C549.137 263.512 542.759 270.906 539.279 277.634C561.409 270.449 574.149 261.632 576.223 251.302C577.618 244.348 573.304 243.587 567.858 246.284ZM767.329 245.571C763.269 247.005 758.193 251.149 752.034 257.916C745.971 264.578 741.876 270.006 737.16 277.564C758.962 270.486 771.587 261.892 773.924 251.761C775.223 246.127 773.209 243.495 767.329 245.571Z" fill="white"/>
</svg>
