<svg width="1084" height="369" viewBox="0 0 1084 369" fill="none" xmlns="http://www.w3.org/2000/svg">
<path d="M530.31 363.641C599.73 342.375 668.631 253.126 707.786 195.917C668.346 202.748 630.014 217.081 595.313 237.031C561.863 256.504 507.954 294.468 491.98 330.844C476.56 365.957 504.037 371.691 530.31 363.641ZM484.892 329.349C502.523 293.278 560.214 255.619 594.194 235.722C629.156 215.384 669.362 200.05 709.278 193.862C721.646 175.591 733.139 156.984 744.344 137.985C734.181 147.828 720.829 159.755 707.453 164.679C690.304 171.007 680.829 160.41 688.947 143.872C695.439 130.645 706.717 119.444 715.993 108.084C722.491 100.093 732.636 87.8841 737.479 75.6896C751.087 41.4249 712.936 34.3148 687.082 44.164C661.025 54.0904 636.161 78.7011 636.161 103.973C636.161 132.337 669.342 126.937 684.866 112.637C707.454 91.8316 698.956 63.7565 678.688 79.6787C677.697 80.4573 675.859 81.0183 677.756 79.1184C695.432 61.4081 720.644 87.24 686.242 114.625C669.043 128.317 631.872 134.401 631.872 104.347C631.872 78.799 657.874 52.572 686.501 42.1181C714.524 31.8848 760.587 39.3194 745.751 78.1558C740.848 90.9902 730.623 103.972 723.124 113.07C713.883 124.283 702.97 136.196 696.968 149.478C692.206 160.013 694.819 166.834 706.853 162.933C715.585 160.102 726.467 152.078 735.1 144.263C744.493 135.76 750.245 127.831 757.681 117.709C771.245 99.2364 795.633 61.7947 812.238 47.5361C817.767 42.7866 822.73 47.868 817.368 52.675C802.545 65.9607 777.054 105.261 765.469 122.582C750.056 145.623 735.978 169.567 720.283 192.367C736.463 190.848 750.885 190.425 767.193 192.741C788.619 195.783 812.142 204.282 826.424 221.304C847.004 191.434 867.379 164.592 889.645 136.117C880.485 144.688 870.472 154.369 860.734 162.217C855.788 166.206 851.393 168.619 847.548 169.439C838.807 171.3 837.205 165.63 841.708 158.915C833.875 166.141 826.849 169.755 820.632 169.755C815.907 169.755 813.544 167.668 813.544 163.525C813.544 152.471 826.665 143.535 835.506 139.575C840.375 137.395 844.432 136.303 847.677 136.303C853.246 136.303 855.163 138.913 853.718 143.978C856.291 140.676 859.863 137.686 864.328 137.686C865.945 137.686 866.753 137.873 866.753 138.247C866.753 138.621 864.845 141.293 858.496 149.011C853.55 155.022 850.528 159.451 849.441 162.304C848.203 165.558 849.859 166.043 852.709 165.055C854.578 164.407 856.968 162.972 859.876 160.751C870.005 153.022 879.715 142.937 889.168 134.263C892.53 131.179 896.299 127.751 900.463 123.969C903.202 121.482 905.624 120.232 907.738 120.232C909.603 120.232 910.535 120.481 910.535 120.979C910.535 121.228 909.541 122.537 907.551 124.903C881.316 155.49 852.94 193.711 830.879 227.413C831.516 228.414 832.124 229.438 832.707 230.487C847.122 211.588 859.939 191.717 874.862 173.031C877.926 169.194 880.763 165.837 883.303 162.902C898.621 145.2 910.349 136.303 918.556 136.303C922.41 136.303 924.338 137.58 924.338 140.103C924.338 142.626 921.758 146.737 916.597 152.5C911.437 158.23 908.857 161.999 908.857 163.743C908.857 164.896 909.478 165.456 910.721 165.456C912.874 165.456 916.102 163.876 920.407 160.717C925.983 156.624 929.751 152.36 934.815 148.453C937.664 146.255 940.927 144.096 944.669 142.096C951.321 138.54 957.131 136.655 962.042 136.343C964.791 136.172 964.155 137.287 962.015 138.359C954.621 141.951 937.768 157.261 937.768 165.643C937.768 167.387 938.638 168.259 940.379 168.259C945.229 168.259 951.011 164.428 957.725 156.735C959.342 150.163 962.451 145.896 967.052 143.872C967.578 142.597 967.9 139.437 967.332 138.109C966.365 135.854 968.511 135.955 969.68 136.875C972.556 139.142 972.694 143.741 971.438 146.944C970.008 150.595 966.742 154.823 961.642 159.663C968.26 161.875 984.863 144.928 989.621 140.788C1003.28 122.781 1018.05 105.377 1033.83 89.2096C1047.48 75.4305 1058.03 66.9066 1065.47 63.6375C1072.5 60.5447 1080.64 62.1715 1076.38 71.1939C1073.08 78.1961 1062.28 89.2591 1043.98 104.381C1029.78 116.122 1014.64 126.616 1001 138.92C998.636 141.91 993.835 148.666 988.985 155.643C996.212 149.343 1007.03 138.642 1017.45 136.634C1024.14 135.343 1030.09 137.007 1028.25 145.291C1027.73 147.591 1026.61 149.934 1025.05 152.212C1033.15 149.992 1040.16 145.665 1046.6 142.19C1053.88 138.266 1059.69 136.303 1064.04 136.303C1068.4 136.303 1070.57 137.923 1070.57 141.162C1070.57 141.91 1070.45 142.719 1070.2 143.592C1073.4 139.889 1075.59 137.905 1080.59 137.905C1082.21 137.905 1083.01 138.092 1083.01 138.466C1083.01 138.839 1081.21 141.293 1074.86 149.011C1069.7 155.282 1066.64 159.831 1065.68 162.666C1064.82 165.193 1065.84 165.873 1068.26 165.296C1070.59 164.738 1073.9 162.714 1078.17 159.227C1079.16 158.343 1082.1 158.134 1079.17 160.535C1074.26 164.557 1067.64 169.755 1061.06 169.755C1057.45 169.755 1055.65 168.228 1055.65 165.176C1055.65 162.902 1056.52 160.815 1058.26 158.915C1053.55 162.556 1050.97 165.578 1044.38 168.21C1039.25 170.261 1029.91 171.58 1029.91 163.525C1029.91 159.881 1031.65 156.019 1035.13 152.001C1033.45 152.444 1027.94 153.331 1023.7 154.025C1017.04 162.367 1004.93 169.381 996.336 169.381C989.482 169.381 988.917 164.564 994.441 161.185C999.862 157.867 1007.4 156.163 1013.5 154.244C1017.85 149.883 1020.02 145.585 1020.02 141.349C1020.02 139.979 1019.22 139.293 1017.6 139.293C1011.38 139.293 999.071 148.45 980.668 166.733C978.803 168.509 976.564 169.381 973.953 169.381C972.585 169.381 971.901 168.944 971.901 168.072C971.901 165.176 976.502 157.95 985.704 146.394C981.34 150.42 966.862 165 960.15 160.971C951.446 167.076 944.358 170.128 938.887 170.128C932.794 170.128 929.747 167.824 929.747 163.213C929.747 158.604 931.488 154.306 934.97 150.319C930.3 154.688 926.734 158.279 921.54 162.217C914.941 167.22 909.354 169.755 904.753 169.755C900.65 169.755 898.598 168.29 898.598 165.394C898.598 162.124 901.427 157.389 907.085 151.222C910.914 147.028 913.446 144.059 914.684 142.3C916.402 139.855 915.278 139.278 912.708 139.821C905.916 141.263 893.83 152.841 876.402 174.489C861.533 192.958 848.407 213.141 833.852 232.647C838.802 242.441 840.776 252.382 840.776 263.38C840.776 306.834 804.102 340.899 763.929 351.4C730.316 360.187 675.145 353.197 675.145 308.979C675.145 280.053 700.536 257.487 726.998 250.859C730.222 250.052 729.599 251.405 727.557 251.981C701.382 259.356 680.18 281.352 680.18 309.726C680.18 351.906 731.275 358.382 763.244 349.731C803.165 338.924 832.383 304.838 832.383 263.007C832.383 254.176 831.173 246.25 828.754 239.229C827.698 240.446 826.794 241.363 826.041 241.983C819.669 247.225 815.493 242.524 818.164 235.27C819.03 232.917 820.529 230.105 822.661 226.824C810.062 207.253 789.13 198.264 766.944 194.617C751.219 192.032 734.786 192.316 718.977 194.235C678.997 252.775 601.368 343.535 530.683 365.416C502.999 373.985 466.726 366.508 484.892 329.349ZM827.772 236.595C827.432 235.75 827.074 234.918 826.697 234.101C824.992 237.052 823.41 241.459 827.772 236.595ZM859.996 71.2358C850.616 90.9926 804.549 120.961 784.633 138.92C782.27 141.91 776.533 149.82 771.683 156.796C779.454 149.456 793.227 136.303 804.404 136.303C809.627 136.303 812.238 138.234 812.238 142.096C812.238 155.035 792.185 169.381 779.97 169.381C772.949 169.381 772.619 164.438 778.275 161.064C783.708 157.824 791.064 156.153 797.13 154.244C801.482 149.883 803.658 145.585 803.658 141.349C803.658 139.979 802.85 139.293 801.234 139.293C795.016 139.293 782.706 148.45 764.302 166.733C762.437 168.509 760.198 169.381 757.587 169.381C756.219 169.381 755.535 168.944 755.535 168.072C755.535 166.754 756.488 164.538 758.394 161.427C772.899 137.739 797.998 109.153 817.461 89.2096C831.087 75.4627 841.617 66.9461 849.05 63.6605C856.128 60.531 864.302 62.1622 859.996 71.2358ZM849.808 65.3174C843.734 68.3348 833.242 78.4318 818.394 95.6572C807.737 108.02 797.064 120.924 787.617 134.248C802.122 122.173 850.608 83.9087 855.801 70.0527C857.693 65.0082 854.131 63.1692 849.808 65.3174ZM795.849 156.007C791.195 157.734 783.623 160.008 779.703 162.798C777.88 164.095 776.851 166.764 779.597 166.764C785.917 166.764 792.374 160.826 795.849 156.007ZM852.527 141.91C852.527 139.667 851.346 138.546 848.983 138.546C845.75 138.546 840.372 142.158 832.849 149.385C825.326 156.611 821.564 161.719 821.564 164.709C821.564 166.203 822.373 166.951 823.989 166.951C827.595 166.951 833.253 163.587 840.962 156.86C848.672 150.132 852.527 145.149 852.527 141.91ZM1066.2 65.3043C1060.54 68.1048 1051.03 77.1035 1037.69 92.2947C1026.01 105.596 1014.31 119.685 1003.98 134.061C1016.7 123.576 1029.59 113.189 1042.03 102.385C1059.93 86.8485 1069.89 76.0279 1072.13 70.1528C1074.06 65.1179 1070.62 63.1191 1066.2 65.3043ZM1012 156.299C1007.32 157.921 999.746 160.042 995.862 162.949C994.125 164.249 993.377 166.764 995.962 166.764C1001.06 166.764 1006.41 163.276 1012 156.299ZM1068.89 141.91C1068.89 139.667 1067.71 138.546 1065.35 138.546C1062.12 138.546 1056.74 142.158 1049.21 149.385C1041.69 156.611 1037.93 161.719 1037.93 164.709C1037.93 167.916 1041.77 166.963 1043.67 166.235C1047.12 164.92 1051.67 161.795 1057.33 156.86C1065.04 150.133 1068.89 145.149 1068.89 141.91Z" fill="white"/>
<path d="M142.853 150.486C139.724 159.593 140.8 168.222 152.34 165.51C165.546 162.406 181.543 147.499 187.114 134.877C188.856 130.932 189.625 127.195 189.39 123.668C188.912 116.478 182.286 117.364 177.639 119.837C170.86 123.446 164.279 130.882 161.412 138.058C160.898 139.345 160.218 138.679 160.666 137.217C162.811 130.226 171.002 121.712 177.359 118.436C183.392 115.327 192.215 114.426 192.934 123.482C193.25 127.463 192.064 131.673 189.577 136.095C182.719 148.292 166.164 164.055 152.725 167.243C138.906 170.521 129.775 164.799 132.275 148.968C138.159 111.71 205.96 63.5524 208.039 28.3445C208.631 18.3039 201.6 16.5723 193.368 19.003C176.644 23.9408 154.599 41.9132 142.573 53.9627C139.589 60.067 135.795 66.4212 131.195 73.0241C116.912 93.5227 101.7 114.124 85.82 133.421C76.7246 144.473 64.3384 159.016 52.5275 166.705C47.3758 170.059 41.7921 172.178 39.6762 169.923C38.3661 168.527 38.0345 165.386 41.0116 160.016C46.6135 149.911 56.4863 139.438 64.2339 130.77C83.2337 109.512 104.55 90.699 123.361 69.2868C132.812 58.5295 141.432 39.3233 139.775 24.9965C137.277 3.39972 113.898 -0.140625 96.1292 2.38392C76.0612 5.23531 50.6789 16.8753 35.5094 30.4158C17.6769 46.3334 0.336639 67.2469 3.05469 92.8331C6.22972 122.721 37.6335 120.032 57.7056 109.465C74.0458 100.864 96.4986 75.821 94.264 56.579C93.2279 47.6586 86.4335 43.779 77.85 44.9924C68.7212 46.2827 59.8784 50.915 53.7887 57.8872C51.2612 60.7812 51.5079 58.8017 52.856 57.1393C58.6408 50.0086 68.3242 44.4519 77.4769 43.3107C87.4691 42.0646 96.9271 45.8308 98.181 56.7658C100.524 77.2048 77.5084 101.289 59.7574 110.774C38.3397 122.218 3.73644 124.806 0.256434 93.0201C-2.45623 68.2448 16.8644 44.801 34.017 29.2943C49.7245 15.0946 74.7533 3.68401 95.5693 0.702127C117.377 -2.42123 143.923 4.47561 147.982 29.4814C148.95 35.446 147.671 42.3139 144.438 50.0383C155.989 38.4707 177.174 22.1544 193.222 17.4416C202.924 14.5927 214.45 16.9084 214.198 29.1079C213.531 61.3399 156.687 110.225 142.853 150.486ZM494.009 151.163C502.264 148.474 509.143 145.515 516.625 139.892C519.848 137.409 522.513 136.167 524.62 136.167C526.479 136.167 527.594 136.353 527.966 136.726C524.372 141.227 520.84 145.729 517.369 150.23C513.308 155.407 510.725 159.168 509.621 161.513C508.261 164.403 510.175 166.201 512.871 165.107C515.711 163.955 520.687 161.165 523.021 156.038C524.377 153.06 518.958 151.291 520.983 148.772C523.093 146.146 527.966 148.052 527.966 153.117C527.966 160.303 512.08 169.509 505.099 169.509C500.885 169.509 498.778 168.018 498.778 165.007C498.778 160.596 504.635 152.826 507.492 149.132C502.829 150.837 497.712 151.964 492.534 153.256C486.541 160.987 474.543 169.267 464.663 169.267C459.2 169.267 456.852 165.484 461.4 162.001C466.435 158.145 475.684 156.062 481.823 154.13C486.175 149.769 488.351 145.471 488.351 141.235C488.351 139.865 487.543 139.179 485.927 139.179C479.709 139.179 467.399 148.336 448.995 166.619C447.254 168.277 440.229 171.037 440.229 167.958C440.229 165.062 444.829 157.836 454.031 146.281C448.137 151.269 444.987 155.355 437.875 159.209C435.472 160.511 431.196 162.489 428.478 160.857C419.773 166.962 412.686 170.014 407.214 170.014C401.121 170.014 398.075 167.71 398.075 163.1C398.075 158.49 399.815 154.192 403.297 150.205C398.423 154.319 394.235 158.576 389.064 162.633C384.277 166.387 379.074 169.338 373.659 169.338C370.936 169.338 369.079 168.346 368.089 166.362C367.593 165.121 367.346 162.95 367.346 159.85C367.346 149.135 359.166 155.439 353.845 160.157C346.692 166.5 341.526 169.338 339.491 169.338C337.224 169.338 336.076 169.444 336.671 166.806C338.015 160.87 345.798 151.484 349.515 146.541C343.71 152.128 338.174 157.186 331.486 161.792C323.528 167.273 316.191 170.014 309.477 170.014C302.886 170.014 299.591 167.772 299.591 163.287C299.591 159.424 301.394 155.251 305 150.766C300.905 153.959 296.36 158.542 291.944 162.103C285.726 167.116 280.379 169.641 275.902 169.641C272.297 169.641 270.494 168.114 270.494 165.062C270.494 162.788 271.437 160.591 273.435 158.304C267.967 163.562 259.78 169.641 251.841 169.641C247.116 169.641 244.754 167.554 244.754 163.411C244.754 159.979 246.298 156.354 249.385 152.588C247.393 154.82 243.674 157.988 238.225 162.103C231.635 167.117 226.039 169.641 221.438 169.641C217.335 169.641 215.283 168.176 215.283 165.28C215.283 162.01 218.112 157.275 223.769 151.108C227.477 147.047 229.97 144.135 231.248 142.357C234.303 138.105 228.962 139.594 226.758 140.645C219.662 144.028 208.454 155.29 193.087 174.375C176.83 194.564 161.139 221.672 144.931 239.69C137.999 247.403 131.074 244.241 135.19 234.284C136.204 231.832 137.82 228.904 140.114 225.549C161.563 194.18 190.54 151.033 217.148 123.855C219.736 121.211 222.309 120.118 224.423 120.118C226.58 120.118 227.568 120.585 226.515 121.98C226.018 122.637 225.268 123.583 224.236 124.789C197.749 155.753 168.285 194.999 146.328 229.205C144.245 232.449 142.851 234.81 142.147 236.284C141.358 237.937 141.183 239.728 143.305 237.69C157.933 223.635 176.77 191.462 191.257 173.28C200.341 161.877 213.949 145.595 226.318 138.898C229.652 137.093 232.625 136.189 235.241 136.189C239.095 136.189 241.023 137.466 241.023 139.989C241.023 142.512 238.443 146.623 233.282 152.386C228.122 158.116 225.541 161.885 225.541 163.629C225.541 164.782 226.163 165.342 227.407 165.342C230.143 165.342 234.619 162.788 240.837 157.68C247.967 151.823 252.775 146.754 261.447 142.076C268.722 138.151 274.535 136.189 278.887 136.189C283.239 136.189 285.415 137.809 285.415 141.048C285.415 141.997 285.224 142.916 284.933 143.816C286.284 142.263 287.892 140.621 289.166 139.565C291.881 137.315 294.424 136.189 296.793 136.189C297.792 136.189 299.725 136.166 298.694 137.621C297.555 139.226 294.565 142.991 289.705 148.897C284.574 155.133 281.514 159.666 280.537 162.504C279.506 165.502 281.206 165.824 283.735 165.003C285.611 164.393 288.031 162.96 290.995 160.706C295.916 156.962 300.103 152.425 304.925 148.685C307.603 146.606 310.963 144.457 315.01 142.232C322.315 138.214 328.005 136.189 332.077 136.189C339.261 136.189 340.189 141.992 336.615 146.935C335.31 148.741 333.787 149.644 332.046 149.644C327.855 149.644 329.75 145.354 330.927 143.291C331.922 141.546 332.419 140.238 332.419 139.366C332.419 138.494 331.797 138.058 330.554 138.058C327.445 138.058 323.093 141.422 317.497 148.118C311.902 154.815 309.104 159.923 309.104 163.442C309.104 165.841 310.534 167.024 313.393 167.024C318.169 167.024 323.953 164.674 330.746 159.975C337.182 155.519 343.01 150.993 348.584 145.512C350.488 143.64 352.322 141.84 354.28 140.339C358.022 137.47 360.459 136.035 361.589 136.035C364.185 136.035 366.189 137.136 364.517 139.492C360.099 145.718 354.3 153.19 350.633 159.292C358.804 151.912 364.375 147.105 367.346 144.842C375.145 138.981 381.706 136.035 387.03 136.035C392.105 136.035 394.644 137.772 394.644 141.245C394.644 144.966 392.724 146.826 388.887 146.826C383.815 146.826 384.372 145.231 385.173 143.38C386.053 141.35 386.776 138.328 383.494 138.328C379.033 138.328 371.183 143.181 360.675 153.004C366.473 150.549 374.717 151.157 376.167 158.64C377.126 163.599 377.937 166.256 382.962 163.986C384.607 163.244 386.325 162.179 388.062 160.929C393.997 156.664 398.71 151.563 404.423 147.359C406.956 145.495 409.808 143.691 412.996 141.982C419.733 138.369 425.613 136.49 430.566 136.217C433.385 136.061 431.998 137.416 430.343 138.245C426.24 140.238 421.328 144.163 415.608 150.018C409.266 156.497 406.095 161.667 406.095 165.529C406.095 167.273 406.966 168.145 408.707 168.145C413.556 168.145 419.338 164.314 426.053 156.621C427.669 150.049 430.778 145.782 435.379 143.758C435.906 142.483 436.227 139.323 435.659 137.996C434.991 136.435 435.833 135.732 437.37 136.359C438.126 136.668 438.799 137.397 439.389 138.556C440.197 140.145 440.602 141.578 440.602 142.823C440.602 147.277 437.058 152.821 429.97 159.549C432.042 160.242 435.207 158.94 436.976 157.934C443.205 154.392 452.299 145.59 457.948 140.674C471.605 122.667 486.376 105.264 502.154 89.0957C516.978 74.1402 528.137 65.3749 535.632 62.801C543.511 60.0953 548.474 64.1688 544.215 72.0553C541.894 76.3518 537.024 82.0297 529.607 89.0863C512.175 105.67 488.882 123.971 469.326 138.806C466.963 141.796 462.489 147.91 457.639 154.887C463.329 150.415 476.003 136.189 489.097 136.189C494.32 136.189 496.931 138.12 496.931 141.982C496.931 145.027 495.957 148.087 494.009 151.163ZM577.268 161.141C573.572 164.034 570.199 166.18 567.146 167.574C563.192 169.379 554.051 171.606 554.051 164.611C554.051 162.089 555.345 158.536 557.795 155.399C552.751 160.155 541.373 169.509 533.376 169.509C529.23 169.509 527.522 167.74 528.059 164.22C528.643 160.393 529.769 158.213 534.038 158.267C537.834 158.314 538.291 159.637 537.237 162.718C536.24 165.631 537.55 165.805 541.164 164.788C544.406 163.875 549.096 160.641 555.233 155.087C554.286 155.325 553.457 155.443 552.746 155.443C548.299 155.443 544.366 153.293 545.105 146.719C545.91 139.554 552.408 136.324 558.725 135.548C563.222 134.995 569.377 135.764 571.76 139.598C573.892 137.936 577.302 136.214 580.975 136.214C582.798 136.214 583.243 136.64 582.19 137.818C578.758 141.659 564.296 160.148 564.296 163.455C564.296 164.524 564.829 165.058 565.895 165.058C568.45 165.058 571.914 163.285 576.285 159.739C577.447 158.798 580.746 158.418 577.268 161.141ZM566.363 141.675C566.51 140.021 565.701 138.886 563.928 138.772C558.985 138.454 552.801 143.124 550.942 148.388C549.734 151.808 550.285 154.446 554.333 153.392C559.836 151.96 566.034 145.377 566.363 141.675ZM118.139 77.1356C100.364 94.9391 83.1573 113.028 66.2856 131.704C58.6601 140.145 48.7994 151.338 43.5296 161.418C38.2167 171.579 44.9492 170.833 51.2703 165.062C62.1076 155.169 71.1537 141.513 80.088 129.835C93.2132 112.68 105.86 94.903 118.139 77.1356ZM283.736 141.796C283.736 139.553 282.555 138.432 280.193 138.432C276.96 138.432 271.582 142.045 264.059 149.271C256.535 156.497 252.774 161.605 252.774 164.595C252.774 166.089 253.582 166.838 255.199 166.838C258.805 166.838 264.463 163.473 272.172 156.746C279.882 150.018 283.736 145.035 283.736 141.796ZM535.974 64.5812C530.201 66.5299 519.216 76.8329 503.087 95.5433C490.134 110.569 479.896 123.388 472.311 133.947C490.477 119.784 510.719 103.231 527.063 86.9258C534.257 79.75 538.63 74.278 540.243 70.5813C541.887 66.8093 540.628 63.0134 535.974 64.5812ZM480.523 155.874C476.35 157.423 466.311 160.63 463.425 163.485C461.32 165.57 463.077 166.835 465.607 166.587C472.216 165.936 476.301 160.447 480.523 155.874Z" fill="white"/>
</svg>
